<svg xmlns="http://www.w3.org/2000/svg" xmlns:xlink="http://www.w3.org/1999/xlink" version="1.1" id="Your_Icon" x="0px" y="0px" width="76.217px" height="100px" viewBox="0 0 76.217 100" enable-background="new 0 0 76.217 100" xml:space="preserve">
<path d="M76.214,29.977v-3.531L46.804,0v0.076H9.022C4.037,0.076,0,4.112,0,9.093v81.888C0,95.966,4.037,100,9.022,100h58.176  c4.979,0,9.016-4.034,9.016-9.019V29.98h0.003L76.214,29.977z M68.197,90.981c0,0.544-0.448,0.999-0.999,0.999H9.022  c-0.559,0-1.006-0.455-1.006-0.999V9.093c0-0.551,0.447-1.002,1.006-1.002h37.781v21.89h21.394V90.981z"/>
<path d="M41.141,41.084c0.059-3.163-0.94-4.789-1.42-5.333c-0.871-1.137-2.263-1.815-3.692-1.802c-0.61,0-1.199,0.114-1.774,0.3  c-1.537,0.496-2.767,1.667-3.39,3.155c-0.441,1.01-0.59,2.115-0.59,3.218c0.018,3.342,1.371,7.052,2.763,10.2  c-1.55,6.032-4.071,13.167-6.714,19.052c-6.955,3.331-11.113,6.448-11.754,10.676c-0.045,0.2-0.045,0.44-0.045,0.645  c-0.035,1.525,0.706,3.579,2.808,5.115c0.806,0.613,1.802,0.947,2.821,0.947c2.598-0.052,4.582-1.854,6.625-4.695  c1.419-1.998,2.88-4.592,4.406-7.765c4.605-1.968,10.189-3.766,15.068-4.848c2.914,2.643,5.67,4.176,8.495,4.203  c2.215,0.021,4.271-1.096,5.557-2.952c0.827-1.179,1.361-2.412,1.361-3.728c0.007-0.706-0.159-1.427-0.489-2.067  c-1.24-2.314-3.831-3.024-6.973-3.018c-1.675,0-3.601,0.183-5.795,0.544c-3.038-3.383-6.211-8.127-8.54-12.795  C40.81,46.041,41.141,43.175,41.141,41.084z M34.743,66.494c0.957-2.48,1.863-5.029,2.666-7.545c1.23,1.957,2.539,3.831,3.883,5.547  C39.114,65.078,36.906,65.75,34.743,66.494z"/>
</svg>