<svg xmlns="http://www.w3.org/2000/svg" xmlns:xlink="http://www.w3.org/1999/xlink" version="1.1" id="Layer_1" x="0px" y="0px" width="100px" height="100px" viewBox="0 0 100 100" enable-background="new 0 0 100 100" xml:space="preserve">
<path d="M83.771,64.402H14.596h-4.325v5.274h4.325v26.382h69.175V69.677h4.324v-5.274H83.771z"/>
<path d="M47.906,46.252c0.099-0.917-0.348-1.89-1.227-2.464c-0.137-0.089-0.277-0.16-0.422-0.223  c-0.041-0.018-0.083-0.033-0.124-0.05c-0.112-0.042-0.226-0.077-0.34-0.104c-0.036-0.009-0.071-0.021-0.108-0.027  c-0.139-0.027-0.274-0.047-0.412-0.052c-0.002,0-0.004,0-0.006,0c-0.009,0-0.017,0-0.024,0c-0.004,0-0.009,0-0.013,0  c-0.018,0-0.033,0.001-0.051,0.001c-0.131,0-0.26,0.01-0.389,0.028c-0.025,0.004-0.055,0.007-0.082,0.012  c-0.125,0.022-0.249,0.054-0.368,0.094c-0.013,0.004-0.024,0.011-0.036,0.015c-0.027,0.01-0.053,0.021-0.078,0.032  c-0.119,0.047-0.231,0.104-0.342,0.169c-0.016,0.011-0.033,0.019-0.05,0.028c-0.118,0.074-0.228,0.163-0.329,0.261  c-0.023,0.021-0.046,0.044-0.068,0.066c-0.076,0.078-0.146,0.162-0.211,0.253c-0.021,0.028-0.047,0.056-0.065,0.087l-0.985,1.508  l-0.838,1.283L33.234,59.58c-0.002,0.002-0.002,0.005-0.004,0.009c-0.428,1.063,0,2.362,1.076,3.065  c0.021,0.015,0.045,0.022,0.066,0.037c0.116,0.07,0.234,0.134,0.354,0.187c0.041,0.019,0.082,0.033,0.123,0.049  c0.112,0.042,0.229,0.078,0.342,0.104c0.037,0.01,0.072,0.021,0.107,0.027c0.137,0.025,0.274,0.045,0.411,0.051  c0.013,0,0.021-0.002,0.032,0c0.021,0,0.041-0.002,0.062-0.002c0.129,0,0.26-0.01,0.387-0.026c0.027-0.005,0.057-0.008,0.082-0.013  c0.14-0.024,0.274-0.062,0.406-0.108c0.025-0.009,0.051-0.021,0.078-0.032c0.096-0.037,0.188-0.082,0.275-0.132  c0.021-0.011,0.044-0.022,0.064-0.035c0.018-0.012,0.034-0.02,0.051-0.03c0.117-0.074,0.227-0.164,0.328-0.26  c0.023-0.021,0.047-0.045,0.069-0.066c0.101-0.104,0.196-0.215,0.277-0.34l7.629-11.686l0.153-0.237l0.777-1.188l0.232-0.357  l0.945-1.449l0.182-0.277C47.828,46.671,47.882,46.464,47.906,46.252L47.906,46.252z"/>
<path d="M78.868,7.098H57.361c-2.836,0-5.135,2.483-5.135,5.546v6.027c0,3.064,2.299,5.547,5.135,5.547h21.507  c2.836,0,5.135-2.483,5.135-5.547v-6.026C84.002,9.582,81.704,7.098,78.868,7.098z M62.48,17.195c-0.848,0-1.535-0.688-1.535-1.536  c0-0.848,0.688-1.536,1.535-1.536c0.85,0,1.537,0.688,1.537,1.536C64.018,16.507,63.33,17.195,62.48,17.195z M68.113,17.195  c-0.848,0-1.535-0.688-1.535-1.536c0-0.848,0.688-1.536,1.535-1.536c0.85,0,1.537,0.688,1.537,1.536  C69.65,16.507,68.962,17.195,68.113,17.195z M73.746,17.195c-0.848,0-1.535-0.688-1.535-1.536c0-0.848,0.688-1.536,1.535-1.536  c0.85,0,1.537,0.688,1.537,1.536C75.283,16.507,74.594,17.195,73.746,17.195z"/>
<circle cx="61.693" cy="31.245" r="3.239"/>
<path d="M50.582,50.969c-0.604,0.131-1.227,0.204-1.869,0.204c-0.661,0-1.304-0.08-1.923-0.218l-0.2,0.307  c0.202,0.243,0.496,0.545,0.928,0.916l0.31,0.268l-0.619,4.463c0.442-0.172,0.922-0.271,1.425-0.271h1.193l-0.649-4.203l0.302-0.271  C50.066,51.637,50.395,51.247,50.582,50.969z"/>
<path d="M45.449,62.865c-0.469-0.647-0.748-1.439-0.748-2.297c0-1.248,0.585-2.356,1.492-3.077l0.646-4.675  c-0.304-0.267-0.558-0.516-0.775-0.752l-7.213,11.051h6.795C45.577,63.035,45.51,62.951,45.449,62.865z"/>
<path d="M40.01,43.688c-3.463,1.141-5.504,4.217-6.048,6.114l-1.688,8.714l8.315-12.738C40.311,45.119,40.122,44.417,40.01,43.688z"/>
<path d="M41.552,44.304l0.446-0.684c0.037-0.056,0.075-0.108,0.121-0.165c0.049-0.066,0.105-0.125,0.158-0.188  c0.057-0.067,0.108-0.138,0.17-0.2c0.039-0.039,0.076-0.078,0.103-0.101c0.173-0.164,0.354-0.308,0.538-0.424  c0.033-0.021,0.064-0.04,0.102-0.06c0.164-0.098,0.34-0.185,0.524-0.258c0.022-0.011,0.045-0.02,0.073-0.031  c0.039-0.017,0.079-0.03,0.12-0.044c0.175-0.06,0.36-0.106,0.534-0.138c0.05-0.01,0.1-0.018,0.146-0.021  c0.188-0.028,0.381-0.043,0.575-0.043c0.02-0.001,0.036-0.002,0.055-0.002c0.018,0,0.034,0,0.051,0c0.019,0,0.039,0,0.061,0.001  c0.199,0.008,0.402,0.032,0.619,0.076c0.054,0.01,0.107,0.023,0.174,0.04c0.165,0.04,0.333,0.092,0.498,0.153  c0.011,0.004,0.021,0.008,0.031,0.013l0.029,0.011c0.043,0.018,0.088,0.034,0.135,0.055c0.231,0.102,0.436,0.211,0.623,0.332  c0.271,0.178,0.513,0.39,0.73,0.619c0.805,0.845,1.232,1.993,1.117,3.135c-0.001,0.008-0.001,0.016-0.002,0.022  c-0.062,0.579-0.256,1.117-0.568,1.601l-0.188,0.286l-0.106,0.163l-0.659,1.011l-0.152,0.232c0.361,0.054,0.728,0.091,1.103,0.091  c0.411,0,0.812-0.043,1.204-0.105c0.432-0.07,0.852-0.178,1.256-0.319c2.562-0.897,4.479-3.152,4.887-5.905  c0.053-0.358,0.09-0.723,0.09-1.097c0-0.299-0.021-0.593-0.058-0.882c-0.407-3.438-3.159-6.157-6.618-6.507  c-0.059-0.006-0.117-0.005-0.177-0.009c-0.192-0.015-0.387-0.029-0.584-0.029c-4.103,0-7.426,3.326-7.426,7.427  c0,0.342,0.03,0.677,0.075,1.007C41.406,43.686,41.469,43.999,41.552,44.304z"/>
<path d="M65.583,59.171l-2.604-9.368c-0.519-1.811-2.403-4.683-5.582-5.934c-0.545,3.135-2.748,5.7-5.674,6.765  c-0.098,0.589-0.606,1.294-1.558,2.154l0.595,3.851h5.749l-0.343-1.021c-0.164-0.483,0.095-1.008,0.579-1.172  c0.483-0.164,1.008,0.096,1.172,0.578l0.793,3.002h-1.735h-6h-0.936h-1.408c-0.638,0-1.219,0.235-1.665,0.623  c-0.537,0.468-0.878,1.153-0.878,1.92c0,0.517,0.154,0.996,0.419,1.396c0.454,0.689,1.236,1.146,2.124,1.146h2.195l0.171-0.029  l11.571,0.029c0.33,0,0.646-0.053,0.945-0.146c0.965-0.306,1.725-1.066,2.03-2.031c0.095-0.298,0.146-0.615,0.146-0.944  c0-0.278-0.039-0.548-0.107-0.806L65.583,59.171L65.583,59.171z"/>
</svg>