<svg xmlns:dc="http://purl.org/dc/elements/1.1/" xmlns:cc="http://creativecommons.org/ns#" xmlns:rdf="http://www.w3.org/1999/02/22-rdf-syntax-ns#" xmlns:svg="http://www.w3.org/2000/svg" xmlns="http://www.w3.org/2000/svg" xmlns:sodipodi="http://sodipodi.sourceforge.net/DTD/sodipodi-0.dtd" xmlns:inkscape="http://www.inkscape.org/namespaces/inkscape" width="100" height="100" viewBox="0 0 80 80" version="1.1" id="svg2" inkscape:version="0.48.2 r9819" sodipodi:docname="blank.svg">
  <metadata id="metadata10">
    <rdf:RDF>
      <cc:Work rdf:about="">
        <dc:format>image/svg+xml</dc:format>
        <dc:type rdf:resource="http://purl.org/dc/dcmitype/StillImage"/>
        <dc:title/>
      </cc:Work>
    </rdf:RDF>
  </metadata>
  <defs id="defs8"/>
  <sodipodi:namedview pagecolor="#ffffff" bordercolor="#666666" borderopacity="1" objecttolerance="10" gridtolerance="10" guidetolerance="10" inkscape:pageopacity="0" inkscape:pageshadow="2" inkscape:window-width="1366" inkscape:window-height="706" id="namedview6" showgrid="true" inkscape:zoom="3.8604222" inkscape:cx="47.955407" inkscape:cy="51.900204" inkscape:window-x="-8" inkscape:window-y="-8" inkscape:window-maximized="1" inkscape:current-layer="svg2" inkscape:snap-grids="false">
    <inkscape:grid type="xygrid" id="grid3807"/>
  </sodipodi:namedview>
  <path style="fill:#000000;stroke:none" d="m 3.71875,3.78125 15.3125,45.53125 c 0,0 0.602434,1.582743 1.732894,2.033305 L 20.057483,48.355839 C 19.820436,47.946646 19.616986,47.486534 19.40625,46.9375 c -0.61458,-1.601178 -0.790877,-3.059125 -0.375,-3.21875 0.415878,-0.159626 1.26042,1.023822 1.875,2.625 0.445724,1.161251 0.667925,2.198487 0.586678,2.757072 L 22.03125,51.375 c 1.810718,-0.741572 0.75,-3.5 0.75,-3.5 L 4,3.96875 z" transform="scale(0.8,0.8)" id="path3809" inkscape:connector-curvature="0" sodipodi:nodetypes="ccccsssccccc"/>
  <g inkscape:label="Layer 1" id="g3515" transform="matrix(0.23442696,0,0,0.26979971,-88.723499,-235.99779)" style="fill:#000000;stroke:none">
    <path style="font-size:medium;font-style:normal;font-variant:normal;font-weight:normal;font-stretch:normal;text-indent:0;text-align:start;text-decoration:none;line-height:normal;letter-spacing:normal;word-spacing:normal;text-transform:none;direction:ltr;block-progression:tb;writing-mode:lr-tb;text-anchor:start;baseline-shift:baseline;color:#000000;fill:#000000;fill-opacity:1;stroke:none;stroke-width:4.71097039999999990;marker:none;visibility:visible;display:inline;overflow:visible;enable-background:accumulate;font-family:Sans;-inkscape-font-specification:Sans" d="m 2.0265904,975.77421 c -0.5663589,0 -1.03741003,0.4805 -1.03741003,1.0375 l 0,48.37549 c 0,0.5569 0.47112573,1.0374 1.03741003,1.0374 l 95.9352516,0 c 0.566285,0 1.027338,-0.4805 1.027338,-1.0374 l 0,-48.37549 c 0,-0.557 -0.460979,-1.0375 -1.027338,-1.0375 l -95.9352516,0 z m 0.4834533,1.5209 94.9683453,0 0,47.41869 -94.9683453,0 0,-47.41869 z" id="path3517" inkscape:connector-curvature="0"/>
    <path style="font-size:medium;font-style:normal;font-variant:normal;font-weight:normal;font-stretch:normal;text-indent:0;text-align:start;text-decoration:none;line-height:normal;letter-spacing:normal;word-spacing:normal;text-transform:none;direction:ltr;block-progression:tb;writing-mode:lr-tb;text-anchor:start;baseline-shift:baseline;color:#000000;fill:#000000;fill-opacity:1;stroke:none;stroke-width:4.71097039999999990;marker:none;visibility:visible;display:inline;overflow:visible;enable-background:accumulate;font-family:Sans;-inkscape-font-specification:Sans" d="m 4.0107631,976.52961 0,6.1238 a 0.75925387,0.75925387 0 0 0 0.4733813,0.6949 l 45.3237406,18.35109 a 0.75925387,0.75925387 0 0 0 0.574101,0 l 45.122302,-18.35109 a 0.75925387,0.75925387 0 0 0 0.473381,-0.6949 l 0,-6.1238 -1.520863,0 0,5.6101 -44.366907,18.03889 -44.5683445,-18.03889 0,-5.6101 -1.5107914,0 z" id="path3519" inkscape:connector-curvature="0"/>
  </g>
  <path d="M 28.28125,65.84375 14.90625,68.0625 9,79.5625 28.34375,89.5 34.25,78.03125 31,71.40625 C 30.255095,71.027979 29.591745,70.479847 28.90625,70 28.28482,69.469118 27.913039,69.074765 27.303682,68.431776 27.18659,68.422894 27.111021,68.400935 27,68.34375 26.555915,68.115011 26.396261,67.569085 26.625,67.125 c 0.228739,-0.444084 0.774666,-0.634989 1.21875,-0.40625 0.403947,0.208064 0.583369,0.653454 0.440594,1.070854 0,0 0.544075,0.612071 0.854734,0.883818 C 29.7151,69.156619 30.03125,69.375 30.03125,69.375 z m -12.8125,2.8125 4.65625,8.46875 -9.96875,1.84375 z m 9.28125,0.375 c 0.62964,-0.007 1.23674,0.171244 1.875,0.5 0.538876,0.277565 0.968267,0.637064 1.28125,1.0625 0.31159,0.428143 0.477039,0.872404 0.5,1.375 0.02074,0.50121 -0.07647,0.97925 -0.3125,1.4375 -0.281347,0.546221 -0.716933,0.94867 -1.28125,1.21875 -0.709682,0.338563 -1.370368,0.340416 -2.03125,0 -0.177498,-0.09141 -0.316785,-0.171507 -0.375,-0.28125 -0.05685,-0.10905 -0.0645,-0.239217 -0.03125,-0.375 -0.377534,0.114537 -0.732833,0.07605 -1.0625,-0.09375 -0.35635,-0.18355 -0.579136,-0.447686 -0.6875,-0.8125 -0.107075,-0.367329 -0.0525,-0.750979 0.15625,-1.15625 0.260634,-0.506006 0.627813,-0.886829 1.125,-1.15625 0.604222,-0.329029 1.182581,-0.369923 1.71875,-0.09375 0.381486,0.196496 0.59412,0.489426 0.625,0.875 l 0.25,-0.3125 0.84375,0.4375 -1.65625,2.0625 c -0.105362,0.130444 -0.16549,0.207268 -0.1875,0.25 -0.02859,0.05549 -0.04195,0.115752 -0.03125,0.15625 0.0098,0.04 0.02846,0.04496 0.0625,0.0625 0.104413,0.05378 0.272842,0.07375 0.5,0.03125 0.30203,-0.04823 0.600397,-0.172459 0.875,-0.375 0.277249,-0.204354 0.47332,-0.455523 0.625,-0.75 0.270991,-0.526116 0.322337,-1.070994 0.125,-1.625 -0.201095,-0.54958 -0.660245,-0.99169 -1.34375,-1.34375 -0.581608,-0.299575 -1.128944,-0.43728 -1.65625,-0.40625 -0.523363,0.0267 -1.007952,0.176656 -1.4375,0.5 -0.424386,0.322823 -0.760082,0.721712 -1,1.1875 -0.23215,0.450707 -0.31724,0.950699 -0.28125,1.4375 0.03836,0.49121 0.207839,0.897904 0.53125,1.28125 0.325865,0.381429 0.781359,0.72642 1.3125,1 0.511228,0.263324 0.962271,0.421603 1.40625,0.46875 0.442624,0.04645 0.876947,-0.0165 1.25,-0.1875 L 27.09375,75.75 c -0.438132,0.325284 -0.928459,0.51028 -1.5,0.53125 C 24.940024,76.301225 24.228748,76.125364 23.5,75.75 22.791164,75.384892 22.265349,74.9412 21.875,74.4375 21.482135,73.932513 21.261827,73.376709 21.25,72.78125 c -0.0105,-0.594763 0.154759,-1.169822 0.4375,-1.71875 0.309346,-0.601529 0.727071,-1.094859 1.28125,-1.46875 0.55153,-0.372074 1.151645,-0.558476 1.78125,-0.5625 z m 0.34375,2.15625 c -0.102249,-0.0085 -0.196952,0 -0.3125,0.03125 -0.230128,0.063 -0.472081,0.214019 -0.6875,0.4375 -0.21542,0.223483 -0.36368,0.421011 -0.46875,0.625 -0.140127,0.272049 -0.16831,0.502742 -0.125,0.6875 0.04603,0.186152 0.117674,0.321995 0.28125,0.40625 0.122,0.06285 0.268064,0.0989 0.40625,0.09375 0.103912,-8.17e-4 0.217768,-0.01266 0.34375,-0.0625 0.18073,-0.07254 0.382291,-0.227882 0.59375,-0.4375 0.210354,-0.207008 0.357206,-0.408444 0.46875,-0.625 0.124488,-0.241692 0.172185,-0.4695 0.125,-0.65625 -0.04472,-0.188668 -0.141381,-0.31811 -0.3125,-0.40625 -0.09194,-0.04736 -0.210251,-0.08529 -0.3125,-0.09375 z m -2.78125,6.21875 5.09375,10.90625 -16.875,-8.71875 z m 11.125,0.5 -5.3125,10.3125 -4.28125,-9.1875 z" transform="scale(0.8,0.8)" id="path3867" inkscape:connector-curvature="0" sodipodi:nodetypes="ccccccccssscccccccccscccccccccscscccccccccscsccsccsccccscccccscsscccccscsscccccccc" style="fill:#000000;stroke:none"/>
  <path style="font-size:medium;font-style:normal;font-variant:normal;font-weight:normal;font-stretch:normal;text-indent:0;text-align:start;text-decoration:none;line-height:normal;letter-spacing:normal;word-spacing:normal;text-transform:none;direction:ltr;block-progression:tb;writing-mode:lr-tb;text-anchor:start;baseline-shift:baseline;color:#000000;fill:#000000;fill-opacity:1;stroke:none;stroke-width:0.80000000999999998px;marker:none;visibility:visible;display:inline;overflow:visible;enable-background:accumulate;font-family:Sans;-inkscape-font-specification:Sans" d="m 61.625,38.5 c -4.526024,0.02063 -7.205451,2.382341 -8.8125,5.6875 C 51.205451,47.492659 50.57302,51.750696 50,56 c -0.57302,4.249304 -1.094909,8.461885 -2.46875,11.53125 -1.001759,2.238079 -2.368944,3.852566 -4.5625,4.5625 0,0 -0.202582,0.275294 -0.1875,0.59375 0.01491,0.314825 0.104682,0.395804 0.1875,0.46875 2.585451,-0.792349 4.36559,-2.754126 5.46875,-5.21875 1.47088,-3.286165 1.990142,-7.568106 2.5625,-11.8125 0.572358,-4.244394 1.219583,-8.416718 2.71875,-11.5 1.499167,-3.083282 3.767536,-5.074609 7.96875,-5.09375 3.642991,-0.0166 7.440084,2.720364 10.9375,6.84375 0,0 0.278366,0.0064 0.5,-0.28125 0.221633,-0.287629 0.125,-0.5625 0.125,-0.5625 C 69.680146,41.347775 65.749235,38.498717 61.6875,38.5 z m -41.1875,7.15625 c -0.185387,-0.0034 -0.406446,0.136851 -0.5,0.28125 -0.09355,0.144399 -0.115225,0.261156 -0.125,0.375 -0.03836,0.446551 0.08622,1.021736 0.34375,1.9375 0.0029,0.01112 -0.0029,0.02005 0,0.03125 1.229464,4.813378 1.996927,11.026836 4.5625,16.125 0.270536,0.537595 0.746864,1.209909 1.0625,1.71875 L 26.8125,65.96875 C 26.488307,65.449305 25.90504,64.55648 25.625,64 c -2.459194,-4.886774 -3.239549,-11.080639 -4.5,-16 -0.02531,-0.08967 -0.0094,-0.07301 -0.03125,-0.15625 0.132139,0.190326 0.08521,0.096 0.21875,0.28125 0,0 -0.08982,-0.508298 -0.1875,-0.84375 C 20.955181,46.698082 20.53125,45.75 20.53125,45.75 20.47321,45.7364 20.517217,45.65769 20.4375,45.65625 z m 55.1875,2.9375 1.65625,4.28125 c 2.682285,4.266047 4.860093,8.727474 7.0625,13.65625 1.567814,3.508618 2.969253,7.005359 4.21875,10.28125 0,0 0.261619,0.126127 0.584932,-0.05415 C 89.470745,76.57808 89.5,76.375 89.5,76.375 88.248014,73.096506 86.818063,69.602925 85.25,66.09375 c -2.800079,-6.266309 -6.056815,-12.520235 -9.625,-17.5 z m -52.4375,0.4375 c 0.175893,0.530019 0.08429,0.676025 0.03125,1.03125 C 23.1846,50.291216 23,50.75 23,50.75 c 1.819105,3.206042 3.713466,7.072146 4.21875,7.96875 L 28.125,58.1875 c -0.47136,-0.836406 -2.778697,-5.313985 -4.6875,-8.625 -0.149376,-0.259108 -0.107526,-0.289503 -0.25,-0.53125 z m 4.15625,17.78125 c -0.144025,-0.02218 -0.344149,0.04926 -0.46875,0.25 -0.145708,0.193022 -0.177811,0.34315 -0.125,0.5625 2.743233,3.460605 6.91593,5.854384 13.40625,5.875 0.523245,0.0017 1.027621,-0.02877 1.5,-0.09375 l 0.25,-1.0625 c -0.544752,0.09603 -1.112344,0.158276 -1.75,0.15625 -6.40636,-0.02035 -10.265935,-2.2964 -12.8125,-5.6875 z m 63.0753,12.34375 c 0.02129,1.031237 0.04205,2.062508 0.0625,3.09375 2.376269,6.70968 3.8622,11.53125 3.8622,11.53125 L 95.3125,93.5 c 0,0 -1.900763,-6.199028 -4.89345,-14.34375 z" transform="scale(0.8,0.8)" id="path3814" inkscape:connector-curvature="0" sodipodi:nodetypes="cssscscsssscsccccccccsccsccccccccsczcsccscccscccccccscccccc"/>
  <path style="fill:#000000;stroke:none" d="m 55.90625,70.59375 -9.28125,0.375 c 0,0 -0.573431,0.654456 -1.091584,1.002166 -0.459718,0.35632 -1.074984,0.696412 -1.074984,0.696412 0.03108,0.293442 -0.118694,0.475959 -0.364682,0.676422 -0.387234,0.315568 -0.934432,0.262234 -1.25,-0.125 -0.315566,-0.387234 -0.262234,-0.965684 0.125,-1.28125 0.193617,-0.157784 0.426149,-0.219059 0.65625,-0.195595 0.240527,-0.0739 0.44328,-0.228536 0.663215,-0.34375 C 44.625611,71.173639 44.71875,71.0625 44.71875,71.0625 l -2.375,0.09375 -3.3125,13.1875 8.15625,10 16.875,-13.75 z m -0.4375,0.6875 7.3125,8.96875 -10.15625,0.28125 z m -8.5625,2.0625 C 47.284655,73.311591 47.647615,73.365056 48,73.5 c 0.467686,0.181415 0.861864,0.475424 1.1875,0.875 0.388146,0.476296 0.60311,1.031015 0.625,1.65625 0.02654,0.785856 -0.236214,1.40538 -0.8125,1.875 -0.154762,0.126135 -0.313635,0.209275 -0.4375,0.21875 -0.122687,0.0085 -0.232591,-0.04023 -0.34375,-0.125 -0.04599,0.391836 -0.21254,0.703236 -0.5,0.9375 -0.310733,0.253223 -0.653541,0.359057 -1.03125,0.3125 -0.379499,-0.04874 -0.712014,-0.240361 -1,-0.59375 -0.359569,-0.441229 -0.57687,-0.936559 -0.625,-1.5 -0.05996,-0.685383 0.157468,-1.212749 0.625,-1.59375 0.33265,-0.271085 0.665496,-0.344629 1.03125,-0.21875 l -0.1875,-0.375 0.75,-0.625 1.21875,2.375 c 0.07742,0.148734 0.125884,0.243989 0.15625,0.28125 0.03943,0.04839 0.0836,0.05611 0.125,0.0625 0.04056,0.007 0.06406,-0.0071 0.09375,-0.03125 0.09104,-0.0742 0.16687,-0.2123 0.21875,-0.4375 0.07657,-0.296116 0.07588,-0.604816 0,-0.9375 C 49.017313,75.320416 48.896755,75.00678 48.6875,74.75 48.313641,74.291236 47.836695,74.04066 47.25,74 c -0.584141,-0.03545 -1.185245,0.2018 -1.78125,0.6875 -0.507152,0.413291 -0.848834,0.87928 -1.03125,1.375 -0.184807,0.490375 -0.218358,0.976993 -0.09375,1.5 0.126186,0.518068 0.35651,1.000091 0.6875,1.40625 0.320274,0.393009 0.726921,0.650827 1.1875,0.8125 0.465567,0.161261 0.925562,0.174387 1.40625,0.03125 0.479911,-0.146154 0.943105,-0.40382 1.40625,-0.78125 0.445782,-0.363279 0.779249,-0.736916 1,-1.125 0.219569,-0.387121 0.320055,-0.777194 0.3125,-1.1875 l 0.625,-0.5 c 0.12295,0.531651 0.05308,1.061507 -0.15625,1.59375 -0.2431,0.607172 -0.677045,1.169651 -1.3125,1.6875 -0.618094,0.5037 -1.225983,0.843635 -1.84375,1 -0.619952,0.158155 -1.199491,0.133512 -1.75,-0.09375 -0.54934,-0.228207 -1.016181,-0.583845 -1.40625,-1.0625 -0.427643,-0.524074 -0.722656,-1.123796 -0.84375,-1.78125 -0.120487,-0.654299 -0.06058,-1.265064 0.1875,-1.84375 0.245361,-0.579908 0.662198,-1.108951 1.21875,-1.5625 0.469891,-0.382926 0.953655,-0.633251 1.46875,-0.75 0.129255,-0.0286 0.248865,-0.05178 0.375,-0.0625 z m -0.5,2.53125 c -0.08537,0.02317 -0.175394,0.0642 -0.25,0.125 -0.160339,0.130664 -0.246125,0.325691 -0.28125,0.5625 -0.03428,0.23612 0.0063,0.494439 0.125,0.78125 0.1187,0.286812 0.230045,0.509625 0.375,0.6875 0.193319,0.237221 0.407088,0.372066 0.59375,0.40625 0.189025,0.03225 0.357364,-0.0088 0.5,-0.125 0.106388,-0.08669 0.168213,-0.183784 0.21875,-0.3125 0.0408,-0.09557 0.05781,-0.20835 0.0625,-0.34375 0.0057,-0.194658 -0.04868,-0.441113 -0.15625,-0.71875 -0.105625,-0.275581 -0.221115,-0.529917 -0.375,-0.71875 -0.171747,-0.210749 -0.372463,-0.312321 -0.5625,-0.34375 -0.09541,-0.01722 -0.164633,-0.02317 -0.25,0 z m 16.15625,5.09375 -14.71875,12 2.71875,-11.6875 z m -13.15625,2.1875 -2.28125,9.875 -7.34375,-9 z" transform="scale(0.8,0.8)" id="path3879" inkscape:connector-curvature="0" sodipodi:nodetypes="ccccsssccccccccccccsccccccccscscccccccccscsccsccsccccscccccscsscccscscccscscccccccc"/>
  <path d="M 58.825,35.2 57.783787,35.284158 58.275,35.825 c 0.04135,0.01594 0.08592,0.02585 0.125,0.05 0.339935,0.210107 0.435107,0.660064 0.225,1 -0.210106,0.339934 -0.660065,0.435106 -1,0.225 -0.247226,-0.152805 -0.357109,-0.429391 -0.325,-0.7 l 0,-0.025 L 56.414109,35.434158 48,36.15 l -5.425,8.775 14.8,9.15 L 62.8,45.3 z m -10.4,1.45 3.175,7.025 -8.05,0.85 z m 6.975,0.875 c 0.12322,-0.0095 0.249398,-0.009 0.375,0 0.502618,0.03365 1.011428,0.198023 1.5,0.5 0.412495,0.254956 0.726885,0.566183 0.95,0.925 0.221834,0.36089 0.313001,0.747715 0.3,1.15 -0.01469,0.401042 -0.108198,0.774222 -0.325,1.125 -0.258431,0.418119 -0.633088,0.719756 -1.1,0.9 -0.587116,0.22581 -1.144113,0.187687 -1.65,-0.125 -0.13587,-0.08397 -0.210408,-0.183846 -0.25,-0.275 -0.03855,-0.09052 -0.03503,-0.193775 0,-0.3 -0.308247,0.06782 -0.597648,0.03097 -0.85,-0.125 -0.272777,-0.168599 -0.436305,-0.402283 -0.5,-0.7 -0.06251,-0.29964 0.0082,-0.614776 0.2,-0.925 0.239404,-0.387335 0.56167,-0.666099 0.975,-0.85 0.502412,-0.224772 0.939577,-0.203681 1.35,0.05 0.292018,0.180491 0.449397,0.415554 0.45,0.725 l 0.225,-0.225 0.65,0.4 -1.45,1.525 c -0.09216,0.09747 -0.154783,0.167289 -0.175,0.2 -0.02626,0.04247 -0.03101,0.09203 -0.025,0.125 0.0053,0.0325 0.02394,0.03389 0.05,0.05 0.07993,0.04939 0.216178,0.06974 0.4,0.05 0.243896,-0.01964 0.468374,-0.105541 0.7,-0.25 0.233859,-0.145709 0.410675,-0.324585 0.55,-0.55 0.248918,-0.402728 0.322869,-0.820845 0.2,-1.275 -0.126139,-0.45086 -0.451795,-0.851616 -0.975,-1.175 -0.445206,-0.275173 -0.877504,-0.41689 -1.3,-0.425 -0.419082,-0.01132 -0.812259,0.09387 -1.175,0.325 -0.358593,0.231027 -0.654625,0.543451 -0.875,0.9 -0.21324,0.345005 -0.323371,0.7095 -0.325,1.1 -1.2e-5,0.394164 0.140945,0.749103 0.375,1.075 0.236132,0.324521 0.543426,0.623705 0.95,0.875 0.391332,0.241875 0.773834,0.384731 1.125,0.45 0.350129,0.06463 0.666809,0.03814 0.975,-0.075 l 0.525,0.325 c -0.369709,0.232138 -0.767848,0.343892 -1.225,0.325 -0.522636,-0.0248 -1.067163,-0.205212 -1.625,-0.55 -0.542596,-0.335369 -0.970056,-0.72394 -1.25,-1.15 -0.281869,-0.427243 -0.402666,-0.874345 -0.375,-1.35 0.02869,-0.475019 0.165289,-0.92981 0.425,-1.35 0.284207,-0.460484 0.659705,-0.811328 1.125,-1.075 0.347301,-0.19679 0.70534,-0.321482 1.075,-0.35 z m 0.275,1.75 c -0.187468,0.03591 -0.364258,0.135197 -0.55,0.3 -0.185737,0.164823 -0.328487,0.318852 -0.425,0.475 -0.128712,0.208247 -0.198031,0.374943 -0.175,0.525 0.02511,0.151336 0.09979,0.272605 0.225,0.35 0.09338,0.05773 0.189467,0.0955 0.3,0.1 0.08293,0.0058 0.196418,-0.01806 0.3,-0.05 0.148656,-0.04662 0.318285,-0.145992 0.5,-0.3 0.18067,-0.151998 0.322542,-0.309232 0.425,-0.475 0.114348,-0.185009 0.150996,-0.348113 0.125,-0.5 -0.02391,-0.153262 -0.09401,-0.26904 -0.225,-0.35 -0.140754,-0.087 -0.31179,-0.110451 -0.5,-0.075 z m -2.35,4.775 3.375,9 -12.925,-8 z m 8.85,1.1 -4.875,7.875 -2.85,-7.6 z" id="path3881" inkscape:connector-curvature="0" sodipodi:nodetypes="ccccssccccccccccccccscccccccccccscccccccccscsccsccsccccscccccccscccccsccccccccccc" style="fill:#000000;stroke:none"/>
  <path d="m 77.21875,71.15625 -10.25,7.8125 13.1875,17.3125 10.25,-7.84375 -0.125,-13.5625 -1.40625,-0.40625 0.28125,0.75 c 0.113222,0.05934 0.229751,0.141643 0.3125,0.25 0.303183,0.397005 0.240756,0.978066 -0.15625,1.28125 -0.397002,0.303181 -0.978067,0.209504 -1.28125,-0.1875 -0.227387,-0.297753 -0.23714,-0.694048 -0.0625,-1 l -0.5625,-1.5 z m 0.25,0.75 0.59375,9.65625 -9.8125,-2.625 z m 6.84375,4.03125 c 0.477065,-0.0056 0.947077,0.112827 1.375,0.3125 0.571872,0.263549 1.064251,0.679404 1.5,1.25 0.367896,0.481749 0.618325,0.981476 0.71875,1.5 0.098,0.520374 0.03843,1.00482 -0.15625,1.46875 -0.196089,0.461726 -0.49659,0.843394 -0.90625,1.15625 -0.488315,0.372914 -1.061885,0.560362 -1.6875,0.5625 -0.786301,0.0018 -1.392561,-0.284172 -1.84375,-0.875 -0.121188,-0.158671 -0.181941,-0.313399 -0.1875,-0.4375 -0.0046,-0.1229 0.0367,-0.235346 0.125,-0.34375 C 82.859814,80.472912 82.537569,80.294717 82.3125,80 c -0.243285,-0.318573 -0.339711,-0.655199 -0.28125,-1.03125 0.0607,-0.377767 0.293929,-0.723322 0.65625,-1 0.452363,-0.345458 0.935319,-0.532186 1.5,-0.5625 0.686934,-0.03829 1.227704,0.176915 1.59375,0.65625 0.260446,0.341044 0.324864,0.700904 0.1875,1.0625 l 0.375,-0.1875 0.59375,0.78125 -2.40625,1.125 C 84.38015,80.916438 84.288201,80.970821 84.25,81 c -0.04961,0.03787 -0.08606,0.08383 -0.09375,0.125 -0.0084,0.04031 0.008,0.06331 0.03125,0.09375 0.07129,0.09334 0.214051,0.191033 0.4375,0.25 0.29355,0.08589 0.602585,0.06534 0.9375,0 0.33808,-0.0658 0.642991,-0.173956 0.90625,-0.375 0.47034,-0.359186 0.753335,-0.821131 0.8125,-1.40625 0.05388,-0.58273 -0.158362,-1.201456 -0.625,-1.8125 -0.397072,-0.51995 -0.854038,-0.864521 -1.34375,-1.0625 -0.484294,-0.200204 -0.973319,-0.264281 -1.5,-0.15625 -0.521794,0.109762 -0.989843,0.338249 -1.40625,0.65625 -0.402925,0.307704 -0.698865,0.701008 -0.875,1.15625 -0.175883,0.460244 -0.190384,0.921284 -0.0625,1.40625 0.130926,0.484286 0.356134,0.962669 0.71875,1.4375 0.349023,0.457031 0.71283,0.798356 1.09375,1.03125 0.379995,0.231686 0.777158,0.3696 1.1875,0.375 l 0.46875,0.59375 c -0.535269,0.1061 -1.068383,0.03853 -1.59375,-0.1875 -0.599195,-0.262147 -1.127475,-0.72351 -1.625,-1.375 -0.483933,-0.633691 -0.800721,-1.252604 -0.9375,-1.875 -0.1385,-0.624637 -0.08828,-1.206941 0.15625,-1.75 0.245443,-0.541859 0.603016,-1.00024 1.09375,-1.375 0.537315,-0.41088 1.15155,-0.680976 1.8125,-0.78125 0.164444,-0.02494 0.309728,-0.02938 0.46875,-0.03125 z m 0.09375,2.28125 c -0.131572,0.016 -0.261043,0.03897 -0.40625,0.09375 -0.290417,0.109588 -0.536386,0.235734 -0.71875,0.375 -0.243207,0.185733 -0.36619,0.377009 -0.40625,0.5625 -0.0382,0.187912 -0.01788,0.353765 0.09375,0.5 0.08328,0.109075 0.185444,0.195429 0.3125,0.25 0.09425,0.04377 0.20855,0.05357 0.34375,0.0625 0.19438,0.01188 0.437854,-0.02624 0.71875,-0.125 0.278779,-0.09687 0.525151,-0.195905 0.71875,-0.34375 0.216066,-0.165008 0.337585,-0.3423 0.375,-0.53125 0.04046,-0.189626 -0.0082,-0.378271 -0.125,-0.53125 -0.125535,-0.164387 -0.295667,-0.269919 -0.53125,-0.3125 -0.11746,-0.02086 -0.243428,-0.016 -0.375,0 z m -16.09375,1.46875 11.59375,3.09375 -0.0625,12 z M 80.59375,84.875 89.75,87.96875 80.53125,95 z" transform="scale(0.8,0.8)" id="path3883" inkscape:connector-curvature="0" sodipodi:nodetypes="cccccccssscccccccscscccccccscccscccccccccscsccsccsccccsccccsscscccccccccscccccccc" style="fill:#000000;stroke:none"/>
</svg>