<svg xmlns="http://www.w3.org/2000/svg" xmlns:xlink="http://www.w3.org/1999/xlink" version="1.1" id="Layer_1" x="0px" y="0px" width="100px" height="100px" viewBox="0 0 100 100" enable-background="new 0 0 100 100" xml:space="preserve">
<path fill="#000000" d="M91.792,87.131L85.01,49.238l5.138-38.136L77.888,9.45l-1.57-8.771L49.033,5.56L21.566,1.858l-0.572,4.25  l-5.622,0.004l0.003,5.471l-7.167,1.283l6.777,37.878l-5.137,38.16l5.577,0.752l0.003,4.279l7.284-0.004l0.965,5.391l27.261-4.881  l27.483,3.703l0.571-4.248l5.633-0.004l-0.004-5.479L91.792,87.131z M12.482,15.843l2.896-0.519l0.01,16.763L12.482,15.843z   M13.99,85.746l1.426-10.59l0.007,10.783L13.99,85.746z M86.005,14.261l-1.062,7.892l-5.823-5.829l-0.55-3.065L86.005,14.261z   M78.296,20.747l-8.366,0.005l-0.005-8.38L78.296,20.747z M73.341,4.953l0.712,3.98l-2.681-0.361l-2.769-2.771L73.341,4.953z   M26.654,95.047l-0.2-1.119l6.475-0.004L26.654,95.047z M19.108,90.25l-0.05-80.457l47.182-0.03l0.01,14.674l14.648-0.01  l0.041,65.783L19.108,90.25z M84.607,67.904l2.91,16.248l-2.898,0.52L84.607,67.904z M73.646,29.197l-46.733,0.03l0.002,3.684  l46.732-0.029L73.646,29.197z M73.65,39.249l-46.731,0.028l0.002,3.684l46.732-0.029L73.65,39.249z M73.656,49.301L26.924,49.33  l0.002,3.684l46.733-0.029L73.656,49.301z M73.663,59.352l-46.732,0.029l0.002,3.684l46.732-0.029L73.663,59.352z M26.937,69.434  l0.003,3.684l46.731-0.029l-0.002-3.684L26.937,69.434z"/>
</svg>