<svg xmlns:x="http://ns.adobe.com/Extensibility/1.0/" xmlns:i="http://ns.adobe.com/AdobeIllustrator/10.0/" xmlns:graph="http://ns.adobe.com/Graphs/1.0/" xmlns="http://www.w3.org/2000/svg" xmlns:xlink="http://www.w3.org/1999/xlink" version="1.1" id="Your_Icon" x="0px" y="0px" width="100px" height="100px" viewBox="0 0 100 100" enable-background="new 0 0 100 100" xml:space="preserve">
<metadata>
	<sfw xmlns="http://ns.adobe.com/SaveForWeb/1.0/">
		<slices/>
		<sliceSourceBounds bottomLeftOrigin="true" width="80.844" height="63.675" y="368.131" x="600.192"/>
	</sfw>
</metadata>
<g>
	<path fill="#000000" d="M87.262,42.976l4.274-1.718l-4.375-3.119l3.964-1.605L66.038,18.694l-15.563,4.787l2.114,1.794   l12.948-4.001L86.14,35.956l-13.936,5.671l-0.084,0.031l-1.201-0.967l12.995-5.09L65.353,22.26l-11.891,3.767l-0.896-0.751   l-2.135-1.794l-1.479-1.243l-18.67,6.104l1.194,0.962l-20.785,6.431l3.891,3.526l-3.88,1.196l3.947,3.548l-3.947,1.218l3.947,3.547   l-3.947,1.218l3.947,3.548l-3.947,1.218l3.947,3.548l-3.947,1.218l25.15,22.85L53.5,75.166v1.748l19-6.678v-2.346l18.938-7.572   l-4.225-3.047l4.299-1.719l-4.262-3.047l4.28-1.718l-4.271-3.047l4.276-1.719L87.262,42.976z M64.939,24.85l14.11,10.142   l-10.173,3.984l-2.153-1.81c-0.698-5.696-6.333-7.659-9.919-8.332l-1.218-1.022L64.939,24.85z M33.703,31.104l1.054,0.845   L18.1,37.225l18.778,16.799l16.634-6.635L53.5,47.821v0.865l-17.379,7.183L15.103,36.755L33.703,31.104z M49.182,43.56l2.614,2.106   l-14.429,5.65L22.727,38.218l14.226-4.505l1.019,0.82C37.754,37.229,38.513,43.129,49.182,43.56z M35.635,58.589L53.5,51.213v2.366   l-17.166,7.01l-21.125-19.11l1.188-0.388L35.635,58.589z M35.854,63.308L53.5,56.105v2.239l-17.166,7.009L15.209,46.244   l1.268-0.413L35.854,63.308z M35.854,68.073L53.5,60.87v2.239l-17.166,7.01l-21.125-19.11l1.268-0.412L35.854,68.073z    M35.854,72.839L53.5,65.636v2.239l-17.166,7.01l-21.125-19.11l1.268-0.413L35.854,72.839z M36.334,79.649L15.209,60.54   l1.404-0.413L35.82,77.604l17.68-7.202v2.239L36.334,79.649z M69.5,44.938v23.669l-13,4.935V50.271v-2.527v-1.045l-2.506-2.019   l-14.52-11.817l-2.112-1.765l-1.001-0.838l-1.263-1.032l13.335-4.357l1.465,1.226l0.915,0.767l2.127,1.786l13.45,11.3l1.919,1.716   l1.19,1.384V44.938z M86.59,45.444L72.5,51.068V48.83l12.033-4.817L86.59,45.444z M84.488,39.181l2.053,1.498L72.5,46.303v-2.306   L84.488,39.181z M86.59,59.74L72.5,65.364v-2.238l12.033-4.817L86.59,59.74z M86.59,54.975L72.5,60.599V58.36l12.033-4.816   L86.59,54.975z M86.59,50.21L72.5,55.833v-2.238l12.033-4.816L86.59,50.21z"/>
	<path fill="#000000" d="M64.939,55.221c-1.854-0.419-2.607-0.834-2.605-1.666c0.001-0.733,0.457-1.587,1.855-1.883   c1.55-0.329,2.561,0.06,3.099,0.256l0.653-3.086c-0.754-0.257-1.72-0.445-3.14-0.197l0.004-2.296l-2.114,0.448l-0.005,2.479   c-2.303,1.012-3.641,3.093-3.646,5.42c-0.004,2.529,1.565,3.505,3.87,3.956c1.611,0.31,2.298,0.788,2.297,1.781   c-0.003,1.019-0.842,1.795-2.095,2.061c-1.396,0.297-2.666,0.021-3.568-0.392l-0.651,3.193c0.817,0.377,2.216,0.573,3.657,0.346   l-0.004,2.48l2.134-0.453l0.005-2.688c2.474-1.021,3.811-3.288,3.814-5.61C68.505,56.993,67.496,55.771,64.939,55.221z"/>
</g>
</svg>