<svg xmlns="http://www.w3.org/2000/svg" xmlns:xlink="http://www.w3.org/1999/xlink" version="1.1" id="Layer_1" x="0px" y="0px" width="100px" height="100px" viewBox="0 0 100 100" enable-background="new 0 0 100 100" xml:space="preserve">
<path d="M16.051,87.021v-7.106c0,0,0.699-5.081,5.449-7.165c0,0,2.729-1.641,9.355-4.525c3.428-1.49,4.165-1.386,7.622-2.914  c0,0,0.361-2.774,0.231-3.831h3.704c0,0,0.617,0.359,0-3.812c0,0-4.296-0.873-4.449-7.517c0,0-2.476,0.833-2.627-3.193  c-0.104-2.729-2.215-5.099,0.824-7.054L35,35.583c0,0-4.083-14.375,4.625-15.875c3.133-4.781,22.629-7.379,24.25,6.833  c0,0,0.556,7.75-0.603,13.001c0,0,3.65-0.423,1.211,6.593c0,0-1.338,5.046-3.398,3.913c0,0-0.664,6.385-3.91,7.467  c0,0,0.232,3.399,0.232,3.63l4.09,0.463c0,0-0.465,3.782,0.078,4.09c0,0,3.664,1.51,8.031,2.632  c8.42,2.161,12.385,5.869,12.385,9.114c0,0,0.85,4.325,0.85,9.577H16.051z M0,0v100h100V0H0z M92,92H8V8h84V92z"/>
</svg>