<svg xmlns="http://www.w3.org/2000/svg" xmlns:xlink="http://www.w3.org/1999/xlink" version="1.1" id="Layer_1" x="0px" y="0px" width="200px" height="200px" viewBox="0 0 100 100" enable-background="new 0 0 100 100" xml:space="preserve">
<g>
	<g>
		<line x1="29.368" y1="52.156" x2="29.368" y2="80.8"/>
		<path d="M29.368,83.518c-1.501,0-2.718-1.218-2.718-2.718V52.156c0-1.504,1.217-2.72,2.718-2.72c1.502,0,2.72,1.216,2.72,2.72    V80.8C32.087,82.3,30.87,83.518,29.368,83.518z"/>
	</g>
	<g>
		<line x1="43.369" y1="52.156" x2="43.369" y2="80.8"/>
		<path d="M43.369,83.518c-1.501,0-2.719-1.218-2.719-2.718V52.156c0-1.504,1.217-2.72,2.719-2.72c1.502,0,2.719,1.216,2.719,2.72    V80.8C46.088,82.3,44.871,83.518,43.369,83.518z"/>
	</g>
	<g>
		<line x1="57.417" y1="52.125" x2="57.417" y2="80.769"/>
		<path d="M57.417,83.488c-1.502,0-2.719-1.218-2.719-2.72V52.125c0-1.501,1.217-2.719,2.719-2.719c1.503,0,2.721,1.217,2.721,2.719    v28.644C60.138,82.271,58.92,83.488,57.417,83.488z"/>
	</g>
	<path d="M81.543,64.641h-7.191c-1.503,0-2.72-1.218-2.72-2.719V42.871c0-1.502,1.217-2.719,2.72-2.719h7.031   c1.979,0,3.205,0.814,3.883,1.498c1.406,1.417,1.466,3.22,1.463,3.567v13.952c0.01,0.526-0.062,2.496-1.495,3.982   C84.579,63.83,83.404,64.641,81.543,64.641z M77.07,59.202h4.222c0-0.002,0-0.003,0-0.004V45.589H77.07V59.202z"/>
	<path d="M86.846,26.419h-7.457c1.711-5.512,0.539-11.744-3.044-15.975c-3.586-4.236-9.157-6.766-14.898-6.766   c-4.109,0-7.85,1.29-10.733,3.6c-3.045-4.6-9.469-7.03-15.613-7.03c-7.055,0-14.166,3.225-16.001,10.323   c-1.147-0.196-2.492-0.347-3.91-0.347c-8.456,0-13.503,5.16-13.846,14.155c-0.185,4.844,1.047,8.677,3.662,11.394   c1.359,1.413,3.049,2.442,4.988,3.094v48.546c0,6.663,5.421,12.083,12.083,12.083h43.366c6.663,0,12.084-5.42,12.084-12.083v-9.373   c0,0,0.001,0.001,0.002,0.001c0.004,0,0.011-0.007,0.016-0.008l9.302,0.004c6.663,0,12.084-5.419,12.084-12.083V38.502   C98.93,31.84,93.509,26.419,86.846,26.419z M7.381,24.608c0.22-5.77,2.627-8.343,7.808-8.343c2.894,0,5.454,0.875,5.47,0.882   c0.926,0.327,1.951,0.184,2.751-0.382c0.801-0.566,1.276-1.486,1.276-2.466c0-7.624,8.675-8.01,10.414-8.01   c5.471,0,11.377,2.697,11.377,7.055c0,1.382,0.938,2.587,2.277,2.928c1.338,0.34,2.739-0.271,3.399-1.485   c1.75-3.22,5.137-5.067,9.293-5.067c3.987,0,7.833,1.731,10.287,4.629c1.765,2.083,3.303,6.083,1.82,10.503   c-1.37,4.089-4.123,5.996-8.671,5.996c-5.169,0-10.442-2.554-10.489-2.578c-1.434-0.707-3.169-0.177-3.962,1.212   c-0.036,0.061-3.572,6.132-10.103,6.347c-7.393,0.244-9.499-5.106-9.7-5.674c-0.364-1.115-1.342-1.918-2.506-2.06   c-0.123-0.015-0.244-0.022-0.365-0.022c-1.033,0-2.007,0.531-2.562,1.422c-1.222,1.96-5.639,4.143-10.023,4.143   c-1.749,0-4.177-0.356-5.813-2.057C7.926,30.094,7.261,27.749,7.381,24.608z M92.888,65.953c0,3.325-2.72,6.042-6.042,6.042h-9.319   c-3.322,0-6.042,2.719-6.042,6.041v9.376c0,3.322-2.719,6.041-6.042,6.041H22.077c-3.323,0-6.042-2.719-6.042-6.041V39.644   c4.026-0.179,8.117-1.578,11.06-3.669c2.125,2.742,6.031,5.904,12.737,5.904c0.229,0,0.46-0.004,0.696-0.012   c6.829-0.224,11.361-4.458,13.576-7.167c2.474,0.938,6.563,2.189,10.779,2.189c4.736,0,8.583-1.606,11.271-4.606v0.178h10.692   c3.322,0,6.042,2.718,6.042,6.042V65.953z"/>
</g>
</svg>