<svg xmlns="http://www.w3.org/2000/svg" xmlns:xlink="http://www.w3.org/1999/xlink" version="1.1" id="Layer_1" x="0px" y="0px" width="71.467px" height="71.465px" viewBox="0 0 71.467 71.465" enable-background="new 0 0 71.467 71.465" xml:space="preserve">
<path fill="#000000" d="M69.712,63.738L6.11,49.634v-8.82l62.658,13.897c0.159,0.034,0.317,0.052,0.473,0.052  c1.005,0,1.91-0.696,2.136-1.718c0.261-1.181-0.485-2.347-1.665-2.609L6.11,36.332v-8.82L68.769,41.41  c0.159,0.032,0.317,0.052,0.473,0.052c1.005,0,1.91-0.697,2.136-1.718c0.193-0.874-0.168-1.739-0.846-2.236L32.626,6.062  C6.978,7.156,0.018,24.057,0.018,24.057v0.342v1.094v25.893c0,0.053,0.013,0.105,0.016,0.159c0.006,0.088,0.011,0.179,0.027,0.266  c0.009,0.051,0.028,0.096,0.041,0.144c0.025,0.092,0.049,0.182,0.083,0.27c0.018,0.037,0.037,0.07,0.054,0.104  c0.045,0.095,0.092,0.186,0.148,0.272c0.013,0.021,0.028,0.036,0.042,0.056c0.068,0.097,0.145,0.189,0.228,0.277  c0.004,0.001,0.005,0.002,0.006,0.004c0.285,0.283,0.649,0.497,1.071,0.592l67.034,14.483c0.159,0.034,0.317,0.053,0.473,0.053  c1.005,0,1.91-0.697,2.136-1.718C71.638,65.166,70.892,63.999,69.712,63.738z"/>
</svg>