<?xml version="1.0" encoding="UTF-8" standalone="no"?>
<!-- Created with Inkscape (http://www.inkscape.org/) -->

<svg
   xmlns:dc="http://purl.org/dc/elements/1.1/"
   xmlns:cc="http://creativecommons.org/ns#"
   xmlns:rdf="http://www.w3.org/1999/02/22-rdf-syntax-ns#"
   xmlns:svg="http://www.w3.org/2000/svg"
   xmlns="http://www.w3.org/2000/svg"
   xmlns:sodipodi="http://sodipodi.sourceforge.net/DTD/sodipodi-0.dtd"
   xmlns:inkscape="http://www.inkscape.org/namespaces/inkscape"
   width="2104.7244"
   height="2979.9211"
   id="svg2"
   version="1.1"
   inkscape:version="0.48.3.1 r9886"
   sodipodi:docname="poster_new.svg"
   inkscape:export-filename="/home/arkhan/Communities/docs/ressources/poster_preview.png"
   inkscape:export-xdpi="29.990726"
   inkscape:export-ydpi="29.990726">
  <defs
     id="defs4" />
  <sodipodi:namedview
     id="base"
     pagecolor="#ffffff"
     bordercolor="#666666"
     borderopacity="1.0"
     inkscape:pageopacity="1"
     inkscape:pageshadow="2"
     inkscape:zoom="0.24748737"
     inkscape:cx="1075.4506"
     inkscape:cy="1161.787"
     inkscape:document-units="px"
     inkscape:current-layer="layer1"
     showgrid="false"
     showguides="true"
     inkscape:guide-bbox="true"
     inkscape:window-width="1024"
     inkscape:window-height="553"
     inkscape:window-x="0"
     inkscape:window-y="25"
     inkscape:window-maximized="1"
     inkscape:snap-from-guide="false" />
  <metadata
     id="metadata7">
    <rdf:RDF>
      <cc:Work
         rdf:about="">
        <dc:format>image/svg+xml</dc:format>
        <dc:type
           rdf:resource="http://purl.org/dc/dcmitype/StillImage" />
        <dc:title></dc:title>
      </cc:Work>
    </rdf:RDF>
  </metadata>
  <g
     inkscape:groupmode="layer"
     id="layer2"
     inkscape:label="Layer">
    <rect
       style="fill:#66006d;fill-opacity:1;stroke:none"
       id="rect3063"
       width="2157.6858"
       height="666.70068"
       x="-16.162441"
       y="-14.171"
       ry="4.1409984" />
    <rect
       style="fill:#000000;fill-opacity:1;stroke:none"
       id="rect6899"
       width="2165.7668"
       height="210.35684"
       x="-20.203051"
       y="2769.8093"
       ry="2.2265565" />
  </g>
  <g
     inkscape:label="Layer 1"
     inkscape:groupmode="layer"
     id="layer1"
     transform="translate(0,1927.5591)">
    <flowRoot
       xml:space="preserve"
       id="flowRoot2985"
       style="font-size:262.75378073px;font-style:normal;font-variant:normal;font-weight:normal;font-stretch:normal;line-height:125%;letter-spacing:0px;word-spacing:0px;fill:#f2f2f2;fill-opacity:1;stroke:none;font-family:URW Bookman L;-inkscape-font-specification:URW Bookman L"
       transform="matrix(1.6365132,0,0,1.6365132,-327.93075,-2054.9552)"><flowRegion
         id="flowRegion2987"><rect
           id="rect2989"
           width="1176.1133"
           height="314.75113"
           x="729.40826"
           y="62.169136"
           style="font-size:262.75378073px;font-style:normal;font-variant:normal;font-weight:normal;font-stretch:normal;fill:#f2f2f2;font-family:URW Bookman L;-inkscape-font-specification:URW Bookman L"
           ry="0" /></flowRegion><flowPara
         id="flowPara2991"
         style="font-size:262.75378073px;font-style:normal;font-variant:normal;font-weight:normal;font-stretch:normal;fill:#f2f2f2;font-family:URW Bookman L;-inkscape-font-specification:URW Bookman L">P I E</flowPara></flowRoot>    <flowRoot
       xml:space="preserve"
       id="flowRoot2993"
       style="font-size:64px;font-style:italic;font-variant:normal;font-weight:normal;font-stretch:normal;line-height:125%;letter-spacing:0px;word-spacing:0px;fill:#f2f2f2;fill-opacity:1;stroke:none;font-family:URW Bookman L;-inkscape-font-specification:URW Bookman L Italic"
       transform="matrix(1.6365132,0,0,1.6365132,-327.93075,-2115.6407)"><flowRegion
         id="flowRegion2995"><rect
           id="rect2997"
           width="954.57281"
           height="124.20882"
           x="731.42859"
           y="385.63544"
           style="font-size:64px;font-style:italic;font-variant:normal;font-weight:normal;font-stretch:normal;fill:#f2f2f2;font-family:URW Bookman L;-inkscape-font-specification:URW Bookman L Italic" /></flowRegion><flowPara
         id="flowPara2999"
         style="font-size:64px;font-style:italic;font-variant:normal;font-weight:normal;font-stretch:normal;fill:#f2f2f2;font-family:URW Bookman L;-inkscape-font-specification:URW Bookman L Italic">Pie Intelligent Editor</flowPara></flowRoot>    <path
       id="path3074"
       d="M 716.85962,-1413.1643 238.80024,-1519.176 v -66.2948 l 470.96389,104.4556 c 1.19509,0.2557 2.38271,0.391 3.55526,0.391 7.55399,0 14.35636,-5.2314 16.05508,-12.9131 1.96178,-8.8771 -3.64548,-17.6412 -12.51485,-19.6105 l -478.05938,-106.0116 v -66.2949 l 470.9714,104.4632 c 1.19511,0.2405 2.3827,0.391 3.55526,0.391 7.55401,0 14.35635,-5.2389 16.05507,-12.9131 1.45067,-6.5697 -1.26275,-13.0713 -6.35888,-16.8068 l -284.91744,-236.3614 c -192.78116,8.223 -245.09545,135.258 -245.09545,135.258 v 2.5706 8.2229 194.6227 c 0,0.3983 0.0977,0.7891 0.12029,1.1952 0.045,0.6613 0.0826,1.3453 0.20294,1.9994 0.0675,0.3832 0.21046,0.7215 0.30816,1.0824 0.18792,0.6913 0.36831,1.3679 0.62387,2.0294 0.13533,0.278 0.27811,0.5261 0.40588,0.7816 0.33824,0.7142 0.69151,1.3981 1.11245,2.0445 0.0977,0.1587 0.21046,0.2707 0.31567,0.4208 0.51113,0.7291 1.08989,1.4208 1.71375,2.0822 0.0301,0 0.0377,0 0.0451,0 2.14219,2.1271 4.87816,3.7356 8.05009,4.4497 l 503.85575,108.8603 c 1.19509,0.2555 2.3827,0.3983 3.55525,0.3983 7.55401,0 14.35638,-5.2389 16.05509,-12.9131 1.96178,-8.8845 -3.64547,-17.6561 -12.51485,-19.6179 z"
       inkscape:connector-curvature="0"
       style="fill:#f2f2f2" />
    <path
       sodipodi:type="arc"
       style="fill:none;stroke:#000000;stroke-width:5;stroke-miterlimit:4;stroke-opacity:1;stroke-dasharray:none"
       id="path3882"
       sodipodi:cx="428.57144"
       sodipodi:cy="1185.6354"
       sodipodi:rx="222.85715"
       sodipodi:ry="222.85715"
       d="m 651.42859,1185.6354 c 0,123.0806 -99.77654,222.8571 -222.85715,222.8571 -123.0806,0 -222.85715,-99.7765 -222.85715,-222.8571 0,-123.0806 99.77655,-222.85717 222.85715,-222.85717 123.08061,0 222.85715,99.77657 222.85715,222.85717 z"
       transform="translate(-0.857143,-1995.8448)" />
    <path
       transform="translate(619.14286,-1995.8448)"
       sodipodi:type="arc"
       style="fill:none;stroke:#000000;stroke-width:5;stroke-miterlimit:4;stroke-opacity:1;stroke-dasharray:none"
       id="path3882-2"
       sodipodi:cx="428.57144"
       sodipodi:cy="1185.6354"
       sodipodi:rx="222.85715"
       sodipodi:ry="222.85715"
       d="m 651.42859,1185.6354 c 0,123.0806 -99.77654,222.8571 -222.85715,222.8571 -123.0806,0 -222.85715,-99.7765 -222.85715,-222.8571 0,-123.0806 99.77655,-222.85717 222.85715,-222.85717 123.08061,0 222.85715,99.77657 222.85715,222.85717 z" />
    <path
       transform="translate(1226.8572,-1995.8448)"
       sodipodi:type="arc"
       style="fill:none;stroke:#000000;stroke-width:5;stroke-miterlimit:4;stroke-opacity:1;stroke-dasharray:none"
       id="path3882-5"
       sodipodi:cx="428.57144"
       sodipodi:cy="1185.6354"
       sodipodi:rx="222.85715"
       sodipodi:ry="222.85715"
       d="m 651.42859,1185.6354 c 0,123.0806 -99.77654,222.8571 -222.85715,222.8571 -123.0806,0 -222.85715,-99.7765 -222.85715,-222.8571 0,-123.0806 99.77655,-222.85717 222.85715,-222.85717 123.08061,0 222.85715,99.77657 222.85715,222.85717 z" />
    <g
       id="g4088"
       transform="matrix(3.8167902,0,0,3.8167902,286.21895,-976.57657)">
      <path
         sodipodi:nodetypes="ccccsssccccc"
         inkscape:connector-curvature="0"
         id="path3809"
         transform="scale(0.8,0.8)"
         d="m 3.71875,3.78125 15.3125,45.53125 c 0,0 0.602434,1.582743 1.732894,2.033305 L 20.057483,48.355839 C 19.820436,47.946646 19.616986,47.486534 19.40625,46.9375 c -0.61458,-1.601178 -0.790877,-3.059125 -0.375,-3.21875 0.415878,-0.159626 1.26042,1.023822 1.875,2.625 0.445724,1.161251 0.667925,2.198487 0.586678,2.757072 L 22.03125,51.375 c 1.810718,-0.741572 0.75,-3.5 0.75,-3.5 L 4,3.96875 z"
         style="fill:#000000;stroke:none" />
      <path
         style="fill:#000000;stroke:none"
         sodipodi:nodetypes="ccccccccssscccccccccscccccccccscscccccccccscsccsccsccccscccccscsscccccscsscccccccc"
         inkscape:connector-curvature="0"
         id="path3867"
         transform="scale(0.8,0.8)"
         d="M 28.28125,65.84375 14.90625,68.0625 9,79.5625 28.34375,89.5 34.25,78.03125 31,71.40625 C 30.255095,71.027979 29.591745,70.479847 28.90625,70 28.28482,69.469118 27.913039,69.074765 27.303682,68.431776 27.18659,68.422894 27.111021,68.400935 27,68.34375 26.555915,68.115011 26.396261,67.569085 26.625,67.125 c 0.228739,-0.444084 0.774666,-0.634989 1.21875,-0.40625 0.403947,0.208064 0.583369,0.653454 0.440594,1.070854 0,0 0.544075,0.612071 0.854734,0.883818 C 29.7151,69.156619 30.03125,69.375 30.03125,69.375 z m -12.8125,2.8125 4.65625,8.46875 -9.96875,1.84375 z m 9.28125,0.375 c 0.62964,-0.007 1.23674,0.171244 1.875,0.5 0.538876,0.277565 0.968267,0.637064 1.28125,1.0625 0.31159,0.428143 0.477039,0.872404 0.5,1.375 0.02074,0.50121 -0.07647,0.97925 -0.3125,1.4375 -0.281347,0.546221 -0.716933,0.94867 -1.28125,1.21875 -0.709682,0.338563 -1.370368,0.340416 -2.03125,0 -0.177498,-0.09141 -0.316785,-0.171507 -0.375,-0.28125 -0.05685,-0.10905 -0.0645,-0.239217 -0.03125,-0.375 -0.377534,0.114537 -0.732833,0.07605 -1.0625,-0.09375 -0.35635,-0.18355 -0.579136,-0.447686 -0.6875,-0.8125 -0.107075,-0.367329 -0.0525,-0.750979 0.15625,-1.15625 0.260634,-0.506006 0.627813,-0.886829 1.125,-1.15625 0.604222,-0.329029 1.182581,-0.369923 1.71875,-0.09375 0.381486,0.196496 0.59412,0.489426 0.625,0.875 l 0.25,-0.3125 0.84375,0.4375 -1.65625,2.0625 c -0.105362,0.130444 -0.16549,0.207268 -0.1875,0.25 -0.02859,0.05549 -0.04195,0.115752 -0.03125,0.15625 0.0098,0.04 0.02846,0.04496 0.0625,0.0625 0.104413,0.05378 0.272842,0.07375 0.5,0.03125 0.30203,-0.04823 0.600397,-0.172459 0.875,-0.375 0.277249,-0.204354 0.47332,-0.455523 0.625,-0.75 0.270991,-0.526116 0.322337,-1.070994 0.125,-1.625 -0.201095,-0.54958 -0.660245,-0.99169 -1.34375,-1.34375 -0.581608,-0.299575 -1.128944,-0.43728 -1.65625,-0.40625 -0.523363,0.0267 -1.007952,0.176656 -1.4375,0.5 -0.424386,0.322823 -0.760082,0.721712 -1,1.1875 -0.23215,0.450707 -0.31724,0.950699 -0.28125,1.4375 0.03836,0.49121 0.207839,0.897904 0.53125,1.28125 0.325865,0.381429 0.781359,0.72642 1.3125,1 0.511228,0.263324 0.962271,0.421603 1.40625,0.46875 0.442624,0.04645 0.876947,-0.0165 1.25,-0.1875 L 27.09375,75.75 c -0.438132,0.325284 -0.928459,0.51028 -1.5,0.53125 C 24.940024,76.301225 24.228748,76.125364 23.5,75.75 22.791164,75.384892 22.265349,74.9412 21.875,74.4375 21.482135,73.932513 21.261827,73.376709 21.25,72.78125 c -0.0105,-0.594763 0.154759,-1.169822 0.4375,-1.71875 0.309346,-0.601529 0.727071,-1.094859 1.28125,-1.46875 0.55153,-0.372074 1.151645,-0.558476 1.78125,-0.5625 z m 0.34375,2.15625 c -0.102249,-0.0085 -0.196952,0 -0.3125,0.03125 -0.230128,0.063 -0.472081,0.214019 -0.6875,0.4375 -0.21542,0.223483 -0.36368,0.421011 -0.46875,0.625 -0.140127,0.272049 -0.16831,0.502742 -0.125,0.6875 0.04603,0.186152 0.117674,0.321995 0.28125,0.40625 0.122,0.06285 0.268064,0.0989 0.40625,0.09375 0.103912,-8.17e-4 0.217768,-0.01266 0.34375,-0.0625 0.18073,-0.07254 0.382291,-0.227882 0.59375,-0.4375 0.210354,-0.207008 0.357206,-0.408444 0.46875,-0.625 0.124488,-0.241692 0.172185,-0.4695 0.125,-0.65625 -0.04472,-0.188668 -0.141381,-0.31811 -0.3125,-0.40625 -0.09194,-0.04736 -0.210251,-0.08529 -0.3125,-0.09375 z m -2.78125,6.21875 5.09375,10.90625 -16.875,-8.71875 z m 11.125,0.5 -5.3125,10.3125 -4.28125,-9.1875 z" />
      <path
         sodipodi:nodetypes="cssscscsssscsccccccccsccsccccccccsczcsccscccscccccccscccccc"
         inkscape:connector-curvature="0"
         id="path3814"
         transform="scale(0.8,0.8)"
         d="m 61.625,38.5 c -4.526024,0.02063 -7.205451,2.382341 -8.8125,5.6875 C 51.205451,47.492659 50.57302,51.750696 50,56 c -0.57302,4.249304 -1.094909,8.461885 -2.46875,11.53125 -1.001759,2.238079 -2.368944,3.852566 -4.5625,4.5625 0,0 -0.202582,0.275294 -0.1875,0.59375 0.01491,0.314825 0.104682,0.395804 0.1875,0.46875 2.585451,-0.792349 4.36559,-2.754126 5.46875,-5.21875 1.47088,-3.286165 1.990142,-7.568106 2.5625,-11.8125 0.572358,-4.244394 1.219583,-8.416718 2.71875,-11.5 1.499167,-3.083282 3.767536,-5.074609 7.96875,-5.09375 3.642991,-0.0166 7.440084,2.720364 10.9375,6.84375 0,0 0.278366,0.0064 0.5,-0.28125 0.221633,-0.287629 0.125,-0.5625 0.125,-0.5625 C 69.680146,41.347775 65.749235,38.498717 61.6875,38.5 z m -41.1875,7.15625 c -0.185387,-0.0034 -0.406446,0.136851 -0.5,0.28125 -0.09355,0.144399 -0.115225,0.261156 -0.125,0.375 -0.03836,0.446551 0.08622,1.021736 0.34375,1.9375 0.0029,0.01112 -0.0029,0.02005 0,0.03125 1.229464,4.813378 1.996927,11.026836 4.5625,16.125 0.270536,0.537595 0.746864,1.209909 1.0625,1.71875 L 26.8125,65.96875 C 26.488307,65.449305 25.90504,64.55648 25.625,64 c -2.459194,-4.886774 -3.239549,-11.080639 -4.5,-16 -0.02531,-0.08967 -0.0094,-0.07301 -0.03125,-0.15625 0.132139,0.190326 0.08521,0.096 0.21875,0.28125 0,0 -0.08982,-0.508298 -0.1875,-0.84375 C 20.955181,46.698082 20.53125,45.75 20.53125,45.75 20.47321,45.7364 20.517217,45.65769 20.4375,45.65625 z m 55.1875,2.9375 1.65625,4.28125 c 2.682285,4.266047 4.860093,8.727474 7.0625,13.65625 1.567814,3.508618 2.969253,7.005359 4.21875,10.28125 0,0 0.261619,0.126127 0.584932,-0.05415 C 89.470745,76.57808 89.5,76.375 89.5,76.375 88.248014,73.096506 86.818063,69.602925 85.25,66.09375 c -2.800079,-6.266309 -6.056815,-12.520235 -9.625,-17.5 z m -52.4375,0.4375 c 0.175893,0.530019 0.08429,0.676025 0.03125,1.03125 C 23.1846,50.291216 23,50.75 23,50.75 c 1.819105,3.206042 3.713466,7.072146 4.21875,7.96875 L 28.125,58.1875 c -0.47136,-0.836406 -2.778697,-5.313985 -4.6875,-8.625 -0.149376,-0.259108 -0.107526,-0.289503 -0.25,-0.53125 z m 4.15625,17.78125 c -0.144025,-0.02218 -0.344149,0.04926 -0.46875,0.25 -0.145708,0.193022 -0.177811,0.34315 -0.125,0.5625 2.743233,3.460605 6.91593,5.854384 13.40625,5.875 0.523245,0.0017 1.027621,-0.02877 1.5,-0.09375 l 0.25,-1.0625 c -0.544752,0.09603 -1.112344,0.158276 -1.75,0.15625 -6.40636,-0.02035 -10.265935,-2.2964 -12.8125,-5.6875 z m 63.0753,12.34375 c 0.02129,1.031237 0.04205,2.062508 0.0625,3.09375 2.376269,6.70968 3.8622,11.53125 3.8622,11.53125 L 95.3125,93.5 c 0,0 -1.900763,-6.199028 -4.89345,-14.34375 z"
         style="font-size:medium;font-style:normal;font-variant:normal;font-weight:normal;font-stretch:normal;text-indent:0;text-align:start;text-decoration:none;line-height:normal;letter-spacing:normal;word-spacing:normal;text-transform:none;direction:ltr;block-progression:tb;writing-mode:lr-tb;text-anchor:start;baseline-shift:baseline;color:#000000;fill:#000000;fill-opacity:1;stroke:none;stroke-width:0.80000001px;marker:none;visibility:visible;display:inline;overflow:visible;enable-background:accumulate;font-family:Sans;-inkscape-font-specification:Sans" />
      <path
         sodipodi:nodetypes="ccccsssccccccccccccsccccccccscscccccccccscsccsccsccccscccccscsscccscscccscscccccccc"
         inkscape:connector-curvature="0"
         id="path3879"
         transform="scale(0.8,0.8)"
         d="m 55.90625,70.59375 -9.28125,0.375 c 0,0 -0.573431,0.654456 -1.091584,1.002166 -0.459718,0.35632 -1.074984,0.696412 -1.074984,0.696412 0.03108,0.293442 -0.118694,0.475959 -0.364682,0.676422 -0.387234,0.315568 -0.934432,0.262234 -1.25,-0.125 -0.315566,-0.387234 -0.262234,-0.965684 0.125,-1.28125 0.193617,-0.157784 0.426149,-0.219059 0.65625,-0.195595 0.240527,-0.0739 0.44328,-0.228536 0.663215,-0.34375 C 44.625611,71.173639 44.71875,71.0625 44.71875,71.0625 l -2.375,0.09375 -3.3125,13.1875 8.15625,10 16.875,-13.75 z m -0.4375,0.6875 7.3125,8.96875 -10.15625,0.28125 z m -8.5625,2.0625 C 47.284655,73.311591 47.647615,73.365056 48,73.5 c 0.467686,0.181415 0.861864,0.475424 1.1875,0.875 0.388146,0.476296 0.60311,1.031015 0.625,1.65625 0.02654,0.785856 -0.236214,1.40538 -0.8125,1.875 -0.154762,0.126135 -0.313635,0.209275 -0.4375,0.21875 -0.122687,0.0085 -0.232591,-0.04023 -0.34375,-0.125 -0.04599,0.391836 -0.21254,0.703236 -0.5,0.9375 -0.310733,0.253223 -0.653541,0.359057 -1.03125,0.3125 -0.379499,-0.04874 -0.712014,-0.240361 -1,-0.59375 -0.359569,-0.441229 -0.57687,-0.936559 -0.625,-1.5 -0.05996,-0.685383 0.157468,-1.212749 0.625,-1.59375 0.33265,-0.271085 0.665496,-0.344629 1.03125,-0.21875 l -0.1875,-0.375 0.75,-0.625 1.21875,2.375 c 0.07742,0.148734 0.125884,0.243989 0.15625,0.28125 0.03943,0.04839 0.0836,0.05611 0.125,0.0625 0.04056,0.007 0.06406,-0.0071 0.09375,-0.03125 0.09104,-0.0742 0.16687,-0.2123 0.21875,-0.4375 0.07657,-0.296116 0.07588,-0.604816 0,-0.9375 C 49.017313,75.320416 48.896755,75.00678 48.6875,74.75 48.313641,74.291236 47.836695,74.04066 47.25,74 c -0.584141,-0.03545 -1.185245,0.2018 -1.78125,0.6875 -0.507152,0.413291 -0.848834,0.87928 -1.03125,1.375 -0.184807,0.490375 -0.218358,0.976993 -0.09375,1.5 0.126186,0.518068 0.35651,1.000091 0.6875,1.40625 0.320274,0.393009 0.726921,0.650827 1.1875,0.8125 0.465567,0.161261 0.925562,0.174387 1.40625,0.03125 0.479911,-0.146154 0.943105,-0.40382 1.40625,-0.78125 0.445782,-0.363279 0.779249,-0.736916 1,-1.125 0.219569,-0.387121 0.320055,-0.777194 0.3125,-1.1875 l 0.625,-0.5 c 0.12295,0.531651 0.05308,1.061507 -0.15625,1.59375 -0.2431,0.607172 -0.677045,1.169651 -1.3125,1.6875 -0.618094,0.5037 -1.225983,0.843635 -1.84375,1 -0.619952,0.158155 -1.199491,0.133512 -1.75,-0.09375 -0.54934,-0.228207 -1.016181,-0.583845 -1.40625,-1.0625 -0.427643,-0.524074 -0.722656,-1.123796 -0.84375,-1.78125 -0.120487,-0.654299 -0.06058,-1.265064 0.1875,-1.84375 0.245361,-0.579908 0.662198,-1.108951 1.21875,-1.5625 0.469891,-0.382926 0.953655,-0.633251 1.46875,-0.75 0.129255,-0.0286 0.248865,-0.05178 0.375,-0.0625 z m -0.5,2.53125 c -0.08537,0.02317 -0.175394,0.0642 -0.25,0.125 -0.160339,0.130664 -0.246125,0.325691 -0.28125,0.5625 -0.03428,0.23612 0.0063,0.494439 0.125,0.78125 0.1187,0.286812 0.230045,0.509625 0.375,0.6875 0.193319,0.237221 0.407088,0.372066 0.59375,0.40625 0.189025,0.03225 0.357364,-0.0088 0.5,-0.125 0.106388,-0.08669 0.168213,-0.183784 0.21875,-0.3125 0.0408,-0.09557 0.05781,-0.20835 0.0625,-0.34375 0.0057,-0.194658 -0.04868,-0.441113 -0.15625,-0.71875 -0.105625,-0.275581 -0.221115,-0.529917 -0.375,-0.71875 -0.171747,-0.210749 -0.372463,-0.312321 -0.5625,-0.34375 -0.09541,-0.01722 -0.164633,-0.02317 -0.25,0 z m 16.15625,5.09375 -14.71875,12 2.71875,-11.6875 z m -13.15625,2.1875 -2.28125,9.875 -7.34375,-9 z"
         style="fill:#000000;stroke:none" />
      <path
         style="fill:#000000;stroke:none"
         sodipodi:nodetypes="ccccssccccccccccccccscccccccccccscccccccccscsccsccsccccscccccccscccccsccccccccccc"
         inkscape:connector-curvature="0"
         id="path3881"
         d="M 58.825,35.2 57.783787,35.284158 58.275,35.825 c 0.04135,0.01594 0.08592,0.02585 0.125,0.05 0.339935,0.210107 0.435107,0.660064 0.225,1 -0.210106,0.339934 -0.660065,0.435106 -1,0.225 -0.247226,-0.152805 -0.357109,-0.429391 -0.325,-0.7 l 0,-0.025 L 56.414109,35.434158 48,36.15 l -5.425,8.775 14.8,9.15 L 62.8,45.3 z m -10.4,1.45 3.175,7.025 -8.05,0.85 z m 6.975,0.875 c 0.12322,-0.0095 0.249398,-0.009 0.375,0 0.502618,0.03365 1.011428,0.198023 1.5,0.5 0.412495,0.254956 0.726885,0.566183 0.95,0.925 0.221834,0.36089 0.313001,0.747715 0.3,1.15 -0.01469,0.401042 -0.108198,0.774222 -0.325,1.125 -0.258431,0.418119 -0.633088,0.719756 -1.1,0.9 -0.587116,0.22581 -1.144113,0.187687 -1.65,-0.125 -0.13587,-0.08397 -0.210408,-0.183846 -0.25,-0.275 -0.03855,-0.09052 -0.03503,-0.193775 0,-0.3 -0.308247,0.06782 -0.597648,0.03097 -0.85,-0.125 -0.272777,-0.168599 -0.436305,-0.402283 -0.5,-0.7 -0.06251,-0.29964 0.0082,-0.614776 0.2,-0.925 0.239404,-0.387335 0.56167,-0.666099 0.975,-0.85 0.502412,-0.224772 0.939577,-0.203681 1.35,0.05 0.292018,0.180491 0.449397,0.415554 0.45,0.725 l 0.225,-0.225 0.65,0.4 -1.45,1.525 c -0.09216,0.09747 -0.154783,0.167289 -0.175,0.2 -0.02626,0.04247 -0.03101,0.09203 -0.025,0.125 0.0053,0.0325 0.02394,0.03389 0.05,0.05 0.07993,0.04939 0.216178,0.06974 0.4,0.05 0.243896,-0.01964 0.468374,-0.105541 0.7,-0.25 0.233859,-0.145709 0.410675,-0.324585 0.55,-0.55 0.248918,-0.402728 0.322869,-0.820845 0.2,-1.275 -0.126139,-0.45086 -0.451795,-0.851616 -0.975,-1.175 -0.445206,-0.275173 -0.877504,-0.41689 -1.3,-0.425 -0.419082,-0.01132 -0.812259,0.09387 -1.175,0.325 -0.358593,0.231027 -0.654625,0.543451 -0.875,0.9 -0.21324,0.345005 -0.323371,0.7095 -0.325,1.1 -1.2e-5,0.394164 0.140945,0.749103 0.375,1.075 0.236132,0.324521 0.543426,0.623705 0.95,0.875 0.391332,0.241875 0.773834,0.384731 1.125,0.45 0.350129,0.06463 0.666809,0.03814 0.975,-0.075 l 0.525,0.325 c -0.369709,0.232138 -0.767848,0.343892 -1.225,0.325 -0.522636,-0.0248 -1.067163,-0.205212 -1.625,-0.55 -0.542596,-0.335369 -0.970056,-0.72394 -1.25,-1.15 -0.281869,-0.427243 -0.402666,-0.874345 -0.375,-1.35 0.02869,-0.475019 0.165289,-0.92981 0.425,-1.35 0.284207,-0.460484 0.659705,-0.811328 1.125,-1.075 0.347301,-0.19679 0.70534,-0.321482 1.075,-0.35 z m 0.275,1.75 c -0.187468,0.03591 -0.364258,0.135197 -0.55,0.3 -0.185737,0.164823 -0.328487,0.318852 -0.425,0.475 -0.128712,0.208247 -0.198031,0.374943 -0.175,0.525 0.02511,0.151336 0.09979,0.272605 0.225,0.35 0.09338,0.05773 0.189467,0.0955 0.3,0.1 0.08293,0.0058 0.196418,-0.01806 0.3,-0.05 0.148656,-0.04662 0.318285,-0.145992 0.5,-0.3 0.18067,-0.151998 0.322542,-0.309232 0.425,-0.475 0.114348,-0.185009 0.150996,-0.348113 0.125,-0.5 -0.02391,-0.153262 -0.09401,-0.26904 -0.225,-0.35 -0.140754,-0.087 -0.31179,-0.110451 -0.5,-0.075 z m -2.35,4.775 3.375,9 -12.925,-8 z m 8.85,1.1 -4.875,7.875 -2.85,-7.6 z" />
      <path
         style="fill:#000000;stroke:none"
         sodipodi:nodetypes="cccccccssscccccccscscccccccscccscccccccccscsccsccsccccsccccsscscccccccccscccccccc"
         inkscape:connector-curvature="0"
         id="path3883"
         transform="scale(0.8,0.8)"
         d="m 77.21875,71.15625 -10.25,7.8125 13.1875,17.3125 10.25,-7.84375 -0.125,-13.5625 -1.40625,-0.40625 0.28125,0.75 c 0.113222,0.05934 0.229751,0.141643 0.3125,0.25 0.303183,0.397005 0.240756,0.978066 -0.15625,1.28125 -0.397002,0.303181 -0.978067,0.209504 -1.28125,-0.1875 -0.227387,-0.297753 -0.23714,-0.694048 -0.0625,-1 l -0.5625,-1.5 z m 0.25,0.75 0.59375,9.65625 -9.8125,-2.625 z m 6.84375,4.03125 c 0.477065,-0.0056 0.947077,0.112827 1.375,0.3125 0.571872,0.263549 1.064251,0.679404 1.5,1.25 0.367896,0.481749 0.618325,0.981476 0.71875,1.5 0.098,0.520374 0.03843,1.00482 -0.15625,1.46875 -0.196089,0.461726 -0.49659,0.843394 -0.90625,1.15625 -0.488315,0.372914 -1.061885,0.560362 -1.6875,0.5625 -0.786301,0.0018 -1.392561,-0.284172 -1.84375,-0.875 C 83.191312,81.153829 83.130559,80.999101 83.125,80.875 83.1204,80.7521 83.1617,80.639654 83.25,80.53125 82.859814,80.472912 82.537569,80.294717 82.3125,80 c -0.243285,-0.318573 -0.339711,-0.655199 -0.28125,-1.03125 0.0607,-0.377767 0.293929,-0.723322 0.65625,-1 0.452363,-0.345458 0.935319,-0.532186 1.5,-0.5625 0.686934,-0.03829 1.227704,0.176915 1.59375,0.65625 0.260446,0.341044 0.324864,0.700904 0.1875,1.0625 l 0.375,-0.1875 0.59375,0.78125 -2.40625,1.125 C 84.38015,80.916438 84.288201,80.970821 84.25,81 c -0.04961,0.03787 -0.08606,0.08383 -0.09375,0.125 -0.0084,0.04031 0.008,0.06331 0.03125,0.09375 0.07129,0.09334 0.214051,0.191033 0.4375,0.25 0.29355,0.08589 0.602585,0.06534 0.9375,0 0.33808,-0.0658 0.642991,-0.173956 0.90625,-0.375 0.47034,-0.359186 0.753335,-0.821131 0.8125,-1.40625 0.05388,-0.58273 -0.158362,-1.201456 -0.625,-1.8125 -0.397072,-0.51995 -0.854038,-0.864521 -1.34375,-1.0625 -0.484294,-0.200204 -0.973319,-0.264281 -1.5,-0.15625 -0.521794,0.109762 -0.989843,0.338249 -1.40625,0.65625 -0.402925,0.307704 -0.698865,0.701008 -0.875,1.15625 -0.175883,0.460244 -0.190384,0.921284 -0.0625,1.40625 0.130926,0.484286 0.356134,0.962669 0.71875,1.4375 0.349023,0.457031 0.71283,0.798356 1.09375,1.03125 0.379995,0.231686 0.777158,0.3696 1.1875,0.375 l 0.46875,0.59375 c -0.535269,0.1061 -1.068383,0.03853 -1.59375,-0.1875 -0.599195,-0.262147 -1.127475,-0.72351 -1.625,-1.375 -0.483933,-0.633691 -0.800721,-1.252604 -0.9375,-1.875 -0.1385,-0.624637 -0.08828,-1.206941 0.15625,-1.75 0.245443,-0.541859 0.603016,-1.00024 1.09375,-1.375 0.537315,-0.41088 1.15155,-0.680976 1.8125,-0.78125 0.164444,-0.02494 0.309728,-0.02938 0.46875,-0.03125 z m 0.09375,2.28125 c -0.131572,0.016 -0.261043,0.03897 -0.40625,0.09375 -0.290417,0.109588 -0.536386,0.235734 -0.71875,0.375 -0.243207,0.185733 -0.36619,0.377009 -0.40625,0.5625 -0.0382,0.187912 -0.01788,0.353765 0.09375,0.5 0.08328,0.109075 0.185444,0.195429 0.3125,0.25 0.09425,0.04377 0.20855,0.05357 0.34375,0.0625 0.19438,0.01188 0.437854,-0.02624 0.71875,-0.125 0.278779,-0.09687 0.525151,-0.195905 0.71875,-0.34375 0.216066,-0.165008 0.337585,-0.3423 0.375,-0.53125 0.04046,-0.189626 -0.0082,-0.378271 -0.125,-0.53125 -0.125535,-0.164387 -0.295667,-0.269919 -0.53125,-0.3125 -0.11746,-0.02086 -0.243428,-0.016 -0.375,0 z m -16.09375,1.46875 11.59375,3.09375 -0.0625,12 z M 80.59375,84.875 89.75,87.96875 80.53125,95 z" />
    </g>
    <g
       id="g4675"
       transform="matrix(3.4923325,0,0,3.4923325,872.28102,-993.85513)">
      <path
         id="path4651"
         d="M 83.771,64.402 H 14.596 10.271 v 5.274 h 4.325 V 96.058 H 83.771 V 69.677 h 4.324 v -5.274 h -4.324 z"
         inkscape:connector-curvature="0" />
      <path
         id="path4653"
         d="m 47.906,46.252 c 0.099,-0.917 -0.348,-1.89 -1.227,-2.464 -0.137,-0.089 -0.277,-0.16 -0.422,-0.223 -0.041,-0.018 -0.083,-0.033 -0.124,-0.05 -0.112,-0.042 -0.226,-0.077 -0.34,-0.104 -0.036,-0.009 -0.071,-0.021 -0.108,-0.027 -0.139,-0.027 -0.274,-0.047 -0.412,-0.052 -0.002,0 -0.004,0 -0.006,0 -0.009,0 -0.017,0 -0.024,0 -0.004,0 -0.009,0 -0.013,0 -0.018,0 -0.033,10e-4 -0.051,10e-4 -0.131,0 -0.26,0.01 -0.389,0.028 -0.025,0.004 -0.055,0.007 -0.082,0.012 -0.125,0.022 -0.249,0.054 -0.368,0.094 -0.013,0.004 -0.024,0.011 -0.036,0.015 -0.027,0.01 -0.053,0.021 -0.078,0.032 -0.119,0.047 -0.231,0.104 -0.342,0.169 -0.016,0.011 -0.033,0.019 -0.05,0.028 -0.118,0.074 -0.228,0.163 -0.329,0.261 -0.023,0.021 -0.046,0.044 -0.068,0.066 -0.076,0.078 -0.146,0.162 -0.211,0.253 -0.021,0.028 -0.047,0.056 -0.065,0.087 l -0.985,1.508 -0.838,1.283 -8.104,12.411 c -0.002,0.002 -0.002,0.005 -0.004,0.009 -0.428,1.063 0,2.362 1.076,3.065 0.021,0.015 0.045,0.022 0.066,0.037 0.116,0.07 0.234,0.134 0.354,0.187 0.041,0.019 0.082,0.033 0.123,0.049 0.112,0.042 0.229,0.078 0.342,0.104 0.037,0.01 0.072,0.021 0.107,0.027 0.137,0.025 0.274,0.045 0.411,0.051 0.013,0 0.021,-0.002 0.032,0 0.021,0 0.041,-0.002 0.062,-0.002 0.129,0 0.26,-0.01 0.387,-0.026 0.027,-0.005 0.057,-0.008 0.082,-0.013 0.14,-0.024 0.274,-0.062 0.406,-0.108 0.025,-0.009 0.051,-0.021 0.078,-0.032 0.096,-0.037 0.188,-0.082 0.275,-0.132 0.021,-0.011 0.044,-0.022 0.064,-0.035 0.018,-0.012 0.034,-0.02 0.051,-0.03 0.117,-0.074 0.227,-0.164 0.328,-0.26 0.023,-0.021 0.047,-0.045 0.069,-0.066 0.101,-0.104 0.196,-0.215 0.277,-0.34 l 7.629,-11.686 0.153,-0.237 0.777,-1.188 0.232,-0.357 0.945,-1.449 0.182,-0.277 c 0.09,-0.2 0.144,-0.407 0.168,-0.619 l 0,0 z"
         inkscape:connector-curvature="0" />
      <path
         id="path4655"
         d="M 78.868,7.098 H 57.361 c -2.836,0 -5.135,2.483 -5.135,5.546 v 6.027 c 0,3.064 2.299,5.547 5.135,5.547 h 21.507 c 2.836,0 5.135,-2.483 5.135,-5.547 V 12.645 C 84.002,9.582 81.704,7.098 78.868,7.098 z M 62.48,17.195 c -0.848,0 -1.535,-0.688 -1.535,-1.536 0,-0.848 0.688,-1.536 1.535,-1.536 0.85,0 1.537,0.688 1.537,1.536 0.001,0.848 -0.687,1.536 -1.537,1.536 z m 5.633,0 c -0.848,0 -1.535,-0.688 -1.535,-1.536 0,-0.848 0.688,-1.536 1.535,-1.536 0.85,0 1.537,0.688 1.537,1.536 0,0.848 -0.688,1.536 -1.537,1.536 z m 5.633,0 c -0.848,0 -1.535,-0.688 -1.535,-1.536 0,-0.848 0.688,-1.536 1.535,-1.536 0.85,0 1.537,0.688 1.537,1.536 0,0.848 -0.689,1.536 -1.537,1.536 z"
         inkscape:connector-curvature="0" />
      <circle
         id="circle4657"
         r="3.2390001"
         cy="31.245001"
         cx="61.693001"
         sodipodi:cx="61.693001"
         sodipodi:cy="31.245001"
         sodipodi:rx="3.2390001"
         sodipodi:ry="3.2390001"
         d="m 64.932001,31.245001 c 0,1.78885 -1.45015,3.239 -3.239,3.239 -1.788851,0 -3.239,-1.45015 -3.239,-3.239 0,-1.788851 1.450149,-3.239 3.239,-3.239 1.78885,0 3.239,1.450149 3.239,3.239 z" />
      <path
         id="path4659"
         d="m 50.582,50.969 c -0.604,0.131 -1.227,0.204 -1.869,0.204 -0.661,0 -1.304,-0.08 -1.923,-0.218 l -0.2,0.307 c 0.202,0.243 0.496,0.545 0.928,0.916 l 0.31,0.268 -0.619,4.463 c 0.442,-0.172 0.922,-0.271 1.425,-0.271 h 1.193 l -0.649,-4.203 0.302,-0.271 c 0.586,-0.527 0.915,-0.917 1.102,-1.195 z"
         inkscape:connector-curvature="0" />
      <path
         id="path4661"
         d="m 45.449,62.865 c -0.469,-0.647 -0.748,-1.439 -0.748,-2.297 0,-1.248 0.585,-2.356 1.492,-3.077 l 0.646,-4.675 C 46.535,52.549 46.281,52.3 46.064,52.064 l -7.213,11.051 h 6.795 c -0.069,-0.08 -0.136,-0.164 -0.197,-0.25 z"
         inkscape:connector-curvature="0" />
      <path
         id="path4663"
         d="m 40.01,43.688 c -3.463,1.141 -5.504,4.217 -6.048,6.114 l -1.688,8.714 8.315,-12.738 c -0.278,-0.659 -0.467,-1.361 -0.579,-2.09 z"
         inkscape:connector-curvature="0" />
      <path
         id="path4665"
         d="m 41.552,44.304 0.446,-0.684 c 0.037,-0.056 0.075,-0.108 0.121,-0.165 0.049,-0.066 0.105,-0.125 0.158,-0.188 0.057,-0.067 0.108,-0.138 0.17,-0.2 0.039,-0.039 0.076,-0.078 0.103,-0.101 0.173,-0.164 0.354,-0.308 0.538,-0.424 0.033,-0.021 0.064,-0.04 0.102,-0.06 0.164,-0.098 0.34,-0.185 0.524,-0.258 0.022,-0.011 0.045,-0.02 0.073,-0.031 0.039,-0.017 0.079,-0.03 0.12,-0.044 0.175,-0.06 0.36,-0.106 0.534,-0.138 0.05,-0.01 0.1,-0.018 0.146,-0.021 0.188,-0.028 0.381,-0.043 0.575,-0.043 0.02,-0.001 0.036,-0.002 0.055,-0.002 0.018,0 0.034,0 0.051,0 0.019,0 0.039,0 0.061,10e-4 0.199,0.008 0.402,0.032 0.619,0.076 0.054,0.01 0.107,0.023 0.174,0.04 0.165,0.04 0.333,0.092 0.498,0.153 0.011,0.004 0.021,0.008 0.031,0.013 l 0.029,0.011 c 0.043,0.018 0.088,0.034 0.135,0.055 0.231,0.102 0.436,0.211 0.623,0.332 0.271,0.178 0.513,0.39 0.73,0.619 0.805,0.845 1.232,1.993 1.117,3.135 -10e-4,0.008 -10e-4,0.016 -0.002,0.022 -0.062,0.579 -0.256,1.117 -0.568,1.601 l -0.188,0.286 -0.106,0.163 -0.659,1.011 -0.152,0.232 c 0.361,0.054 0.728,0.091 1.103,0.091 0.411,0 0.812,-0.043 1.204,-0.105 0.432,-0.07 0.852,-0.178 1.256,-0.319 2.562,-0.897 4.479,-3.152 4.887,-5.905 0.053,-0.358 0.09,-0.723 0.09,-1.097 0,-0.299 -0.021,-0.593 -0.058,-0.882 -0.407,-3.438 -3.159,-6.157 -6.618,-6.507 -0.059,-0.006 -0.117,-0.005 -0.177,-0.009 -0.192,-0.015 -0.387,-0.029 -0.584,-0.029 -4.103,0 -7.426,3.326 -7.426,7.427 0,0.342 0.03,0.677 0.075,1.007 0.044,0.319 0.107,0.632 0.19,0.937 z"
         inkscape:connector-curvature="0" />
      <path
         id="path4667"
         d="m 65.583,59.171 -2.604,-9.368 c -0.519,-1.811 -2.403,-4.683 -5.582,-5.934 -0.545,3.135 -2.748,5.7 -5.674,6.765 -0.098,0.589 -0.606,1.294 -1.558,2.154 l 0.595,3.851 h 5.749 l -0.343,-1.021 c -0.164,-0.483 0.095,-1.008 0.579,-1.172 0.483,-0.164 1.008,0.096 1.172,0.578 l 0.793,3.002 h -1.735 -6 -0.936 -1.408 c -0.638,0 -1.219,0.235 -1.665,0.623 -0.537,0.468 -0.878,1.153 -0.878,1.92 0,0.517 0.154,0.996 0.419,1.396 0.454,0.689 1.236,1.146 2.124,1.146 h 2.195 l 0.171,-0.029 11.571,0.029 c 0.33,0 0.646,-0.053 0.945,-0.146 0.965,-0.306 1.725,-1.066 2.03,-2.031 0.095,-0.298 0.146,-0.615 0.146,-0.944 0,-0.278 -0.039,-0.548 -0.107,-0.806 l 0.001,-0.013 0,0 z"
         inkscape:connector-curvature="0" />
    </g>
    <g
       id="g4772"
       transform="matrix(3.4193853,0,0,3.4193853,1481.6818,-980.74889)">
      <path
         id="path4774"
         d="M 10.468,34.748 V 33.336 H 4.536 v 1.412 h 5.932 l 0,0 z m 80.487,0 h 5.486 v -1.412 h -5.486 v 1.412 l 0,0 z M 70.091,87.301 v 1.959 c 0,0.779 0.632,1.412 1.411,1.412 h 1.96 c 0.78,0 1.413,-0.633 1.413,-1.412 v -1.959 c 0,-0.78 -0.633,-1.412 -1.413,-1.412 h -1.96 c -0.779,0 -1.411,0.632 -1.411,1.412 l 0,0 z m 6.25,0 v 1.959 c 0,0.779 0.632,1.412 1.413,1.412 h 1.958 c 0.778,0 1.411,-0.633 1.411,-1.412 v -1.959 c 0,-0.78 -0.633,-1.412 -1.411,-1.412 h -1.958 c -0.781,0 -1.413,0.632 -1.413,1.412 l 0,0 z m -50.026,5.221 v 1.614 c 0,0.389 0.316,0.704 0.706,0.704 h 47.13 c 0.391,0 0.707,-0.315 0.707,-0.704 v -1.614 c 0,-0.392 -0.316,-0.706 -0.707,-0.706 h -47.13 c -0.39,0 -0.706,0.315 -0.706,0.706 l 0,0 z M 16.979,81.497 v 1.958 c 0,0.781 0.633,1.414 1.413,1.414 h 1.958 c 0.78,0 1.413,-0.633 1.413,-1.414 v -1.958 c 0,-0.78 -0.632,-1.413 -1.413,-1.413 h -1.958 c -0.781,0 -1.413,0.633 -1.413,1.413 l 0,0 z m 6.25,0 v 1.958 c 0,0.781 0.632,1.414 1.412,1.414 h 1.958 c 0.781,0 1.414,-0.633 1.414,-1.414 v -1.958 c 0,-0.78 -0.633,-1.413 -1.414,-1.413 h -1.958 c -0.78,0 -1.412,0.633 -1.412,1.413 l 0,0 z m 6.25,0 v 1.958 c 0,0.781 0.632,1.414 1.412,1.414 h 1.958 c 0.781,0 1.414,-0.633 1.414,-1.414 v -1.958 c 0,-0.78 -0.633,-1.413 -1.414,-1.413 h -1.958 c -0.78,0 -1.412,0.633 -1.412,1.413 l 0,0 z m 6.25,0 v 1.958 c 0,0.781 0.633,1.414 1.413,1.414 H 39.1 c 0.78,0 1.413,-0.633 1.413,-1.414 v -1.958 c 0,-0.78 -0.633,-1.413 -1.413,-1.413 h -1.958 c -0.78,0 -1.413,0.633 -1.413,1.413 l 0,0 z m 6.25,0 v 1.958 c 0,0.781 0.632,1.414 1.413,1.414 h 1.958 c 0.781,0 1.413,-0.633 1.413,-1.414 v -1.958 c 0,-0.78 -0.632,-1.413 -1.413,-1.413 h -1.958 c -0.78,0 -1.413,0.633 -1.413,1.413 l 0,0 z m 6.251,0 v 1.958 c 0,0.781 0.632,1.414 1.413,1.414 h 1.958 c 0.78,0 1.413,-0.633 1.413,-1.414 v -1.958 c 0,-0.78 -0.633,-1.413 -1.413,-1.413 h -1.958 c -0.781,0 -1.413,0.633 -1.413,1.413 l 0,0 z m 6.249,0 v 1.958 c 0,0.781 0.633,1.414 1.414,1.414 h 1.959 c 0.779,0 1.412,-0.633 1.412,-1.414 v -1.958 c 0,-0.78 -0.633,-1.413 -1.412,-1.413 h -1.959 c -0.782,0 -1.414,0.633 -1.414,1.413 l 0,0 z m 6.251,0 v 1.958 c 0,0.781 0.634,1.414 1.413,1.414 h 1.958 c 0.779,0 1.411,-0.633 1.411,-1.414 v -1.958 c 0,-0.78 -0.632,-1.413 -1.411,-1.413 h -1.958 c -0.779,0 -1.413,0.633 -1.413,1.413 l 0,0 z m 6.249,0 v 1.958 c 0,0.781 0.632,1.414 1.413,1.414 h 1.958 c 0.781,0 1.413,-0.633 1.413,-1.414 v -1.958 c 0,-0.78 -0.632,-1.413 -1.413,-1.413 h -1.958 c -0.781,0 -1.413,0.633 -1.413,1.413 l 0,0 z m 6.251,0 v 1.958 c 0,0.781 0.632,1.414 1.414,1.414 h 1.957 c 0.779,0 1.412,-0.633 1.412,-1.414 v -1.958 c 0,-0.78 -0.633,-1.413 -1.412,-1.413 h -1.957 c -0.782,0 -1.414,0.633 -1.414,1.413 l 0,0 z m 6.25,0 v 1.958 c 0,0.781 0.633,1.414 1.412,1.414 h 1.958 c 0.78,0 1.413,-0.633 1.413,-1.414 v -1.958 c 0,-0.78 -0.633,-1.413 -1.413,-1.413 h -1.958 c -0.779,0 -1.412,0.633 -1.412,1.413 l 0,0 z m -59.391,5.804 v 1.959 c 0,0.779 0.633,1.412 1.413,1.412 h 1.958 c 0.78,0 1.413,-0.633 1.413,-1.412 v -1.959 c 0,-0.78 -0.633,-1.412 -1.413,-1.412 h -1.958 c -0.78,0 -1.413,0.632 -1.413,1.412 l 0,0 z M 13.84,75.692 v 1.959 c 0,0.78 0.632,1.413 1.413,1.413 h 1.958 c 0.781,0 1.413,-0.633 1.413,-1.413 v -1.959 c 0,-0.778 -0.632,-1.412 -1.413,-1.412 h -1.958 c -0.781,0 -1.413,0.634 -1.413,1.412 l 0,0 z m 6.25,0 v 1.959 c 0,0.78 0.632,1.413 1.413,1.413 h 1.958 c 0.78,0 1.413,-0.633 1.413,-1.413 v -1.959 c 0,-0.778 -0.632,-1.412 -1.413,-1.412 h -1.958 c -0.781,0 -1.413,0.634 -1.413,1.412 l 0,0 z m 6.25,0 v 1.959 c 0,0.78 0.632,1.413 1.412,1.413 h 1.958 c 0.78,0 1.413,-0.633 1.413,-1.413 v -1.959 c 0,-0.778 -0.633,-1.412 -1.413,-1.412 h -1.958 c -0.78,0 -1.412,0.634 -1.412,1.412 l 0,0 z m 6.249,0 v 1.959 c 0,0.78 0.633,1.413 1.414,1.413 h 1.958 c 0.78,0 1.412,-0.633 1.412,-1.413 v -1.959 c 0,-0.778 -0.632,-1.412 -1.412,-1.412 h -1.958 c -0.781,0 -1.414,0.634 -1.414,1.412 l 0,0 z m 6.251,0 v 1.959 c 0,0.78 0.633,1.413 1.413,1.413 h 1.958 c 0.78,0 1.412,-0.633 1.412,-1.413 v -1.959 c 0,-0.778 -0.632,-1.412 -1.412,-1.412 h -1.958 c -0.78,0 -1.413,0.634 -1.413,1.412 l 0,0 z m 6.251,0 v 1.959 c 0,0.78 0.631,1.413 1.412,1.413 h 1.958 c 0.781,0 1.413,-0.633 1.413,-1.413 v -1.959 c 0,-0.778 -0.632,-1.412 -1.413,-1.412 h -1.958 c -0.781,0 -1.412,0.634 -1.412,1.412 l 0,0 z m 6.249,0 v 1.959 c 0,0.78 0.634,1.413 1.412,1.413 h 1.959 c 0.781,0 1.413,-0.633 1.413,-1.413 v -1.959 c 0,-0.778 -0.632,-1.412 -1.413,-1.412 h -1.959 c -0.778,0 -1.412,0.634 -1.412,1.412 l 0,0 z m 6.25,0 v 1.959 c 0,0.78 0.633,1.413 1.414,1.413 h 1.957 c 0.78,0 1.414,-0.633 1.414,-1.413 v -1.959 c 0,-0.778 -0.634,-1.412 -1.414,-1.412 h -1.957 c -0.781,0 -1.414,0.634 -1.414,1.412 l 0,0 z m 6.252,0 v 1.959 c 0,0.78 0.633,1.413 1.411,1.413 h 1.958 c 0.781,0 1.414,-0.633 1.414,-1.413 v -1.959 c 0,-0.778 -0.633,-1.412 -1.414,-1.412 h -1.958 c -0.778,0 -1.411,0.634 -1.411,1.412 l 0,0 z m 6.249,0 v 1.959 c 0,0.78 0.632,1.413 1.413,1.413 h 1.958 c 0.78,0 1.413,-0.633 1.413,-1.413 v -1.959 c 0,-0.778 -0.633,-1.412 -1.413,-1.412 h -1.958 c -0.781,0 -1.413,0.634 -1.413,1.412 l 0,0 z m 6.25,0 v 1.959 c 0,0.78 0.634,1.413 1.413,1.413 h 1.958 c 0.779,0 1.411,-0.633 1.411,-1.413 v -1.959 c 0,-0.778 -0.632,-1.412 -1.411,-1.412 h -1.958 c -0.779,0 -1.413,0.634 -1.413,1.412 l 0,0 z m 6.249,0 v 1.959 c 0,0.78 0.634,1.413 1.414,1.413 h 1.959 c 0.779,0 1.412,-0.633 1.412,-1.413 v -1.959 c 0,-0.778 -0.633,-1.412 -1.412,-1.412 h -1.959 c -0.78,0 -1.414,0.634 -1.414,1.412 l 0,0 z M 26.339,87.301 v 1.959 c 0,0.779 0.632,1.412 1.413,1.412 h 1.958 c 0.781,0 1.413,-0.633 1.413,-1.412 v -1.959 c 0,-0.78 -0.632,-1.412 -1.413,-1.412 h -1.958 c -0.78,0 -1.413,0.632 -1.413,1.412 l 0,0 z m 6.25,0 v 1.959 c 0,0.779 0.633,1.412 1.414,1.412 h 1.958 c 0.78,0 1.412,-0.633 1.412,-1.412 v -1.959 c 0,-0.78 -0.632,-1.412 -1.412,-1.412 h -1.958 c -0.781,0 -1.414,0.632 -1.414,1.412 l 0,0 z m 6.25,0 v 1.959 c 0,0.779 0.633,1.412 1.414,1.412 h 1.958 c 0.78,0 1.413,-0.633 1.413,-1.412 v -1.959 c 0,-0.78 -0.632,-1.412 -1.413,-1.412 h -1.958 c -0.781,0 -1.414,0.632 -1.414,1.412 l 0,0 z m 6.251,0 v 1.959 c 0,0.779 0.632,1.412 1.413,1.412 h 1.958 c 0.781,0 1.412,-0.633 1.412,-1.412 v -1.959 c 0,-0.78 -0.631,-1.412 -1.412,-1.412 h -1.958 c -0.781,0 -1.413,0.632 -1.413,1.412 l 0,0 z m 6.25,0 v 1.959 c 0,0.779 0.634,1.412 1.412,1.412 h 1.959 c 0.781,0 1.412,-0.633 1.412,-1.412 v -1.959 c 0,-0.78 -0.631,-1.412 -1.412,-1.412 h -1.959 c -0.778,0 -1.412,0.632 -1.412,1.412 l 0,0 z m 6.25,0 v 1.959 c 0,0.779 0.633,1.412 1.414,1.412 h 1.956 c 0.781,0 1.415,-0.633 1.415,-1.412 v -1.959 c 0,-0.78 -0.634,-1.412 -1.415,-1.412 h -1.956 c -0.781,0 -1.414,0.632 -1.414,1.412 l 0,0 z m 6.25,0 v 1.959 c 0,0.779 0.635,1.412 1.413,1.412 h 1.958 c 0.781,0 1.412,-0.633 1.412,-1.412 v -1.959 c 0,-0.78 -0.631,-1.412 -1.412,-1.412 h -1.958 c -0.778,0 -1.413,0.632 -1.413,1.412 l 0,0 z M 20.424,39.256 v 5.531 l 21.795,-0.052 v 1.991 c -0.067,3.078 -2.576,5.559 -5.647,5.598 l -2.65,0.004 c -2.644,0 -4.787,1.98 -4.787,4.423 0,2.444 2.143,4.425 4.787,4.425 h 33.429 c 2.646,0 4.79,-1.98 4.79,-4.425 0,-2.442 -2.145,-4.423 -4.79,-4.423 l -2.542,-0.004 c -3.07,-0.039 -5.579,-2.52 -5.646,-5.598 v -2.032 l 21.663,-0.051 v -5.387 h -5.002 v 0.708 H 70.52 V 39.256 H 30.673 v 0.708 h -5.305 v -0.708 h -4.944 l 0,0 z M 80.826,1.904 H 20.424 v 35.939 h 4.944 v -0.706 h 5.305 v 0.706 H 70.52 v -0.706 h 5.305 v 0.706 h 5.002 V 1.904 l -0.001,0 z m 10.132,88.502 c 0,4.68 -3.796,8.475 -8.476,8.475 H 18.946 c -4.683,0 -8.478,-3.795 -8.478,-8.475 V 40.563 H 4.787 c -0.779,0 -1.412,-0.634 -1.412,-1.413 v -6.112 c 0,-0.779 0.632,-1.413 1.412,-1.413 h 5.681 v -5.599 l 8.542,-0.02 V 0.492 h 63.229 v 25.361 l 8.716,-0.021 v 5.792 h 5.479 c 0.783,0 1.416,0.634 1.416,1.413 v 6.112 c 0,0.779 -0.633,1.413 -1.416,1.413 h -5.479 l 0.003,49.844 0,0 z"
         inkscape:connector-curvature="0" />
    </g>
    <flowRoot
       xml:space="preserve"
       id="flowRoot4790"
       style="font-size:120px;font-style:normal;font-variant:normal;font-weight:normal;font-stretch:normal;line-height:125%;letter-spacing:0px;word-spacing:0px;fill:#b3b3b3;fill-opacity:1;stroke:none;font-family:Roboto Slab;-inkscape-font-specification:Roboto Slab"
       transform="translate(109.13709,-1896.0464)"><flowRegion
         id="flowRegion4792"><rect
           id="rect4794"
           width="1629.9587"
           height="182.16389"
           x="186.08556"
           y="671.34973"
           style="font-size:120px;font-style:normal;font-variant:normal;font-weight:normal;font-stretch:normal;fill:#b3b3b3;font-family:Roboto Slab;-inkscape-font-specification:Roboto Slab" /></flowRegion><flowPara
         id="flowPara4796"
         style="font-size:120px;font-style:normal;font-variant:normal;font-weight:normal;font-stretch:normal;fill:#b3b3b3;font-family:Roboto Slab;-inkscape-font-specification:Roboto Slab">Have you ever felt tired of...</flowPara></flowRoot>    <flowRoot
       xml:space="preserve"
       id="flowRoot3033"
       style="font-size:40px;font-style:normal;font-variant:normal;font-weight:normal;font-stretch:normal;text-align:center;line-height:125%;letter-spacing:0px;word-spacing:0px;text-anchor:middle;fill:#000000;fill-opacity:1;stroke:none;font-family:Roboto Slab;-inkscape-font-specification:Roboto Slab"
       transform="translate(0,-2001.5591)"><flowRegion
         id="flowRegion3035"><rect
           id="rect3037"
           width="577.80725"
           height="165.66502"
           x="141.42136"
           y="1480.8547"
           style="font-style:normal;font-variant:normal;font-weight:normal;font-stretch:normal;text-align:center;text-anchor:middle;font-family:Roboto Slab;-inkscape-font-specification:Roboto Slab" /></flowRegion><flowPara
         id="flowPara3039">Managing tons of email with heavy attachments?</flowPara></flowRoot>    <flowRoot
       xml:space="preserve"
       id="flowRoot3041"
       style="font-size:40px;font-style:normal;font-variant:normal;font-weight:normal;font-stretch:normal;text-align:center;line-height:125%;letter-spacing:0px;word-spacing:0px;text-anchor:middle;fill:#000000;fill-opacity:1;stroke:none;font-family:Roboto Slab;-inkscape-font-specification:Roboto Slab"
       transform="translate(0,-2001.5591)"><flowRegion
         id="flowRegion3043"><rect
           id="rect3045"
           width="585.88849"
           height="169.70563"
           x="747.51288"
           y="1484.8954"
           style="font-style:normal;font-variant:normal;font-weight:normal;font-stretch:normal;text-align:center;text-anchor:middle;font-family:Roboto Slab;-inkscape-font-specification:Roboto Slab" /></flowRegion><flowPara
         id="flowPara3047">Merging each writer's version by hand?</flowPara></flowRoot>    <flowRoot
       xml:space="preserve"
       id="flowRoot3049"
       style="font-size:40px;font-style:normal;font-variant:normal;font-weight:normal;font-stretch:normal;text-align:center;line-height:125%;letter-spacing:0px;word-spacing:0px;text-anchor:middle;fill:#000000;fill-opacity:1;stroke:none;font-family:Roboto Slab;-inkscape-font-specification:Roboto Slab"
       transform="translate(0,-2001.5591)"><flowRegion
         id="flowRegion3051"><rect
           id="rect3053"
           width="589.92908"
           height="177.78685"
           x="1365.7262"
           y="1484.8954"
           style="font-style:normal;font-variant:normal;font-weight:normal;font-stretch:normal;text-align:center;text-anchor:middle;font-family:Roboto Slab;-inkscape-font-specification:Roboto Slab" /></flowRegion><flowPara
         id="flowPara3055">Struggling with incompatible office suites?</flowPara></flowRoot>    <flowRoot
       xml:space="preserve"
       id="flowRoot4790-2"
       style="font-size:68px;font-style:normal;font-variant:normal;font-weight:normal;font-stretch:normal;line-height:125%;letter-spacing:0px;word-spacing:0px;fill:#999999;fill-opacity:1;stroke:none;font-family:Roboto Slab;-inkscape-font-specification:Roboto Slab"
       transform="translate(-49.807346,-1040.8396)"><flowRegion
         id="flowRegion4792-4"><rect
           id="rect4794-8"
           width="2025.9384"
           height="238.7319"
           x="137.59824"
           y="671.34973"
           style="font-size:68px;font-style:normal;font-variant:normal;font-weight:normal;font-stretch:normal;fill:#999999;font-family:Roboto Slab;-inkscape-font-specification:Roboto Slab" /></flowRegion><flowPara
         id="flowPara4796-0"
         style="font-size:68px;font-style:normal;font-variant:normal;font-weight:normal;font-stretch:normal;fill:#999999;font-family:Roboto Slab;-inkscape-font-specification:Roboto Slab">Discover the power of our new document writing workshop:</flowPara></flowRoot>    <flowRoot
       xml:space="preserve"
       id="flowRoot3860"
       style="fill:black;stroke:none;stroke-opacity:1;stroke-width:1px;stroke-linejoin:miter;stroke-linecap:butt;fill-opacity:1;font-family:Sans;font-style:normal;font-weight:normal;font-size:40px;line-height:125%;letter-spacing:0px;word-spacing:0px"><flowRegion
         id="flowRegion3862"><rect
           id="rect3864"
           width="638.41638"
           height="44.446712"
           x="1333.4014"
           y="1610.1543" /></flowRegion><flowPara
         id="flowPara3866" /></flowRoot>    <rect
       style="fill:none;stroke:#000000;stroke-width:5;stroke-miterlimit:4;stroke-opacity:1;stroke-dasharray:none"
       id="rect3047"
       width="754.49731"
       height="529.8385"
       x="533.96375"
       y="-74.569618"
       ry="2.5661101" />
    <path
       style="fill:#000000;stroke:#000000;stroke-width:5;stroke-linecap:butt;stroke-linejoin:miter;stroke-miterlimit:4;stroke-opacity:1;stroke-dasharray:none"
       d="m 914.40347,-74.569681 0.3545,528.477161"
       id="path3817"
       inkscape:connector-curvature="0"
       sodipodi:nodetypes="cc" />
    <rect
       style="fill:#0064ff;fill-opacity:1;stroke:#000000;stroke-width:5;stroke-miterlimit:4;stroke-opacity:1;stroke-dasharray:none"
       id="rect3823"
       width="105.17359"
       height="40.826557"
       x="551.05341"
       y="-52.160427"
       ry="2.5661101" />
    <rect
       style="fill:#ff3200;fill-opacity:1;stroke:#000000;stroke-width:5;stroke-miterlimit:4;stroke-opacity:1;stroke-dasharray:none"
       id="rect3823-4"
       width="105.17359"
       height="40.826557"
       x="787.28314"
       y="-51.97897"
       ry="2.5661101" />
    <rect
       style="fill:#00c846;fill-opacity:1;stroke:#000000;stroke-width:5;stroke-miterlimit:4;stroke-opacity:1;stroke-dasharray:none"
       id="rect3823-3"
       width="105.17359"
       height="40.826557"
       x="669.41479"
       y="-52.160427"
       ry="2.5661101" />
    <rect
       style="fill:#ffff96;fill-opacity:1;stroke:#000000;stroke-width:5;stroke-miterlimit:4;stroke-opacity:1;stroke-dasharray:none"
       id="rect3859"
       width="343.22153"
       height="425.95816"
       x="550.87726"
       y="3.7503736"
       ry="2.537353" />
    <rect
       style="fill:#cd87de;fill-opacity:1;stroke:#000000;stroke-width:5;stroke-miterlimit:4;stroke-opacity:1;stroke-dasharray:none"
       id="rect3859-5"
       width="224.27112"
       height="80.610596"
       x="1045.8239"
       y="-31.702291"
       ry="0.48018226" />
    <path
       sodipodi:type="arc"
       style="fill:none;stroke:#000000;stroke-width:7.87302637;stroke-miterlimit:4;stroke-opacity:1;stroke-dasharray:none"
       id="path4195"
       sodipodi:cx="920"
       sodipodi:cy="1965.6354"
       sodipodi:rx="62.857143"
       sodipodi:ry="62.857143"
       d="m 982.85714,1965.6354 c 0,34.715 -28.1421,62.8571 -62.85714,62.8571 -34.71504,0 -62.85714,-28.1421 -62.85714,-62.8571 0,-34.7151 28.1421,-62.8572 62.85714,-62.8572 34.71504,0 62.85714,28.1421 62.85714,62.8572 z"
       transform="matrix(0.63507981,0,0,0.63507981,396.78649,-1239.4374)" />
    <rect
       style="fill:#cd87de;fill-opacity:1;stroke:#000000;stroke-width:5;stroke-miterlimit:4;stroke-opacity:1;stroke-dasharray:none"
       id="rect3859-5-4"
       width="224.27112"
       height="80.610596"
       x="1045.1678"
       y="90.05851"
       ry="0.48018226" />
    <path
       transform="matrix(0.63507981,0,0,0.63507981,396.13051,-1117.6767)"
       sodipodi:type="arc"
       style="fill:none;stroke:#000000;stroke-width:7.87302637;stroke-miterlimit:4;stroke-opacity:1;stroke-dasharray:none"
       id="path4195-6"
       sodipodi:cx="920"
       sodipodi:cy="1965.6354"
       sodipodi:rx="62.857143"
       sodipodi:ry="62.857143"
       d="m 982.85714,1965.6354 c 0,34.715 -28.1421,62.8571 -62.85714,62.8571 -34.71504,0 -62.85714,-28.1421 -62.85714,-62.8571 0,-34.7151 28.1421,-62.8572 62.85714,-62.8572 34.71504,0 62.85714,28.1421 62.85714,62.8572 z" />
    <rect
       style="fill:#cd87de;fill-opacity:1;stroke:#000000;stroke-width:5;stroke-miterlimit:4;stroke-opacity:1;stroke-dasharray:none"
       id="rect4229"
       width="184.75993"
       height="107.77662"
       x="1002.5431"
       y="219.37782"
       ry="0.48018226" />
    <g
       id="g4351"
       transform="translate(93.042875,-234.77099)">
      <path
         id="path4329"
         d="M 12.5,6.25 C 12.5,9.705 9.705,12.5 6.25,12.5 2.795,12.5 0,9.705 0,6.25 0,2.795 2.795,0 6.25,0 9.705,0 12.5,2.795 12.5,6.25 z"
         style="fill:#010101"
         inkscape:connector-curvature="0" />
      <path
         id="path4331"
         d="m 37.5,81.25 c 0,3.455 -2.795,6.25 -6.25,6.25 C 27.795,87.5 25,84.705 25,81.25 25,77.795 27.795,75 31.25,75 c 3.455,0 6.25,2.795 6.25,6.25 z"
         style="fill:#010101"
         inkscape:connector-curvature="0" />
      <path
         id="path4333"
         d="m 37.5,31.25 c 0,3.455 -2.795,6.25 -6.25,6.25 C 27.795,37.5 25,34.705 25,31.25 25,27.795 27.795,25 31.25,25 c 3.455,0 6.25,2.795 6.25,6.25 z"
         style="fill:#010101"
         inkscape:connector-curvature="0" />
      <path
         id="path4335"
         d="m 62.5,56.25 c 0,3.455 -2.795,6.25 -6.25,6.25 C 52.795,62.5 50,59.705 50,56.25 50,52.795 52.795,50 56.25,50 c 3.455,0 6.25,2.795 6.25,6.25 z"
         style="fill:#010101"
         inkscape:connector-curvature="0" />
      <rect
         id="rect4337"
         height="12.5"
         width="75"
         style="fill:#010101"
         x="25"
         y="0" />
      <rect
         id="rect4339"
         height="12.5"
         width="50"
         style="fill:#010101"
         y="25"
         x="50" />
      <rect
         id="rect4341"
         height="12.5"
         width="50"
         style="fill:#010101"
         y="75"
         x="50" />
      <rect
         id="rect4343"
         height="12.5"
         width="25"
         style="fill:#010101"
         y="50"
         x="75" />
    </g>
    <g
       id="g5137"
       transform="matrix(0.71428571,0,0,0.71428571,101.15619,55.210069)">
      <path
         id="path5117"
         d="m 133.363,10.104 -8.96,-5.921 C 122.1,2.66 118.744,3.677 116.909,6.454 L 78.248,64.951 c -0.931,1.41 -1.286,3.001 -1.113,4.427 l -1.285,9.286 -1.523,11.031 9.55,-5.727 8.038,-4.821 c 1.38,-0.399 2.705,-1.35 3.637,-2.761 l 38.661,-58.498 c 1.834,-2.776 1.454,-6.262 -0.85,-7.784 z M 88.449,65.845 c -1.581,2.392 -3.392,3.978 -4.047,3.544 l -2.546,-1.682 c -0.655,-0.434 0.094,-2.721 1.674,-5.114 l 33.28,-50.357 c 1.581,-2.392 3.393,-3.978 4.048,-3.545 l 2.547,1.684 c 0.655,0.433 -0.095,2.721 -1.675,5.112 L 88.449,65.845 z m 7.337,4.85 c -1.581,2.391 -3.393,3.978 -4.046,3.544 l -2.548,-1.684 c -0.656,-0.432 0.094,-2.721 1.675,-5.113 l 33.281,-50.357 c 1.58,-2.391 3.392,-3.978 4.047,-3.545 l 2.546,1.684 c 0.655,0.432 -0.095,2.721 -1.674,5.112 L 95.786,70.695 z"
         inkscape:connector-curvature="0"
         style="fill:#000000" />
      <g
         id="g5119">
        <path
           id="path5121"
           d="m 119.08,52.545 v 62.421 c 0,2.273 -1.841,4.114 -4.114,4.114 H 25.034 c -2.271,0 -4.114,-1.841 -4.114,-4.114 V 25.034 c 0,-2.271 1.843,-4.114 4.114,-4.114 h 75.504 l 6.983,-10.566 H 15.354 c -2.761,0 -5,2.239 -5,5 v 109.293 c 0,2.762 2.239,5 5,5 h 109.292 c 2.762,0 5,-2.238 5,-5 V 36.559 L 119.08,52.545 z"
           inkscape:connector-curvature="0"
           style="fill:#000000" />
      </g>
      <path
         id="path5123"
         d="m 90.257,36.498 c 0,2.761 -2.238,5 -5,5 h -52.54 c -2.761,0 -5,-2.239 -5,-5 v -2.862 c 0,-2.761 2.239,-5 5,-5 h 52.54 c 2.762,0 5,2.239 5,5 v 2.862 z"
         inkscape:connector-curvature="0"
         style="fill:#000000" />
      <path
         id="path5125"
         d="m 77.234,56.533 c 0,2.761 -1.772,5 -3.959,5 H 31.676 c -2.187,0 -3.959,-2.239 -3.959,-5 v -2.862 c 0,-2.761 1.772,-5 3.959,-5 h 41.599 c 2.187,0 3.959,2.239 3.959,5 v 2.862 z"
         inkscape:connector-curvature="0"
         style="fill:#000000" />
      <path
         id="path5127"
         d="m 70,76.111 c 0,2.762 -1.513,5 -3.38,5 H 31.098 c -1.867,0 -3.38,-2.238 -3.38,-5 V 73.25 c 0,-2.761 1.514,-5 3.38,-5 h 35.521 c 1.867,0 3.38,2.239 3.38,5 v 2.861 z"
         inkscape:connector-curvature="0"
         style="fill:#000000" />
      <path
         id="path5129"
         d="m 70,96.144 c 0,2.762 -1.514,5 -3.381,5 H 31.098 c -1.867,0 -3.38,-2.238 -3.38,-5 v -2.861 c 0,-2.761 1.514,-5 3.38,-5 h 35.521 c 1.867,0 3.381,2.239 3.381,5 v 2.861 z"
         inkscape:connector-curvature="0"
         style="fill:#000000" />
    </g>
    <g
       id="g5352"
       transform="translate(549.36225,-238.85504)">
      <g
         id="Captions" />
      <g
         id="Your_Icon">
        <path
           id="path5340"
           d="m 64.122,2.29 v 11.09 c 0,0.674 0.547,1.222 1.222,1.222 h 11.087 c 0.676,0 0.835,-0.387 0.358,-0.863 L 64.986,1.933 C 64.509,1.455 64.122,1.615 64.122,2.29 z"
           inkscape:connector-curvature="0"
           style="fill:#000000" />
        <path
           id="path5342"
           d="M 71.736,69.242 V 58.449 c 0,-0.675 0.324,-0.779 0.723,-0.235 l 5.542,7.561 c 0.398,0.544 0.722,0.438 0.722,-0.236 V 19.087 c 0,0 0,-0.206 0,-0.46 0,-0.253 -0.205,-0.458 -0.459,-0.458 h -0.46 -14.905 c 0,0 -0.524,0 -1.172,0 -0.648,0 -1.172,-0.525 -1.172,-1.173 V 15.823 0.92 c 0,0 0,-0.207 0,-0.459 C 60.555,0.205 60.348,0 60.095,0 h -0.46 -45.066 c -0.675,0 -1.221,0.546 -1.221,1.222 v 28.057 25.243 28.056 c 0,0.675 0.546,1.222 1.221,1.222 h 28.613 c 0.675,0 1.221,-0.547 1.221,-1.222 V 71.686 c 0,-0.676 0.546,-1.222 1.222,-1.222 h 13.981 10.909 c 0.675,0 1.221,-0.547 1.221,-1.222 z M 35.471,21.43 h 20.805 c 0.675,0 1.222,0.547 1.222,1.222 v 2.609 c 0,0.674 -0.547,1.222 -1.222,1.222 H 35.471 c -0.675,0 -1.222,-0.548 -1.222,-1.222 v -2.609 c 10e-4,-0.675 0.547,-1.222 1.222,-1.222 z m 0,12.316 h 29.362 c 0.676,0 1.222,0.546 1.222,1.222 v 2.608 c 0,0.675 -0.546,1.222 -1.222,1.222 H 35.471 c -0.675,0 -1.222,-0.547 -1.222,-1.222 v -2.608 c 10e-4,-0.676 0.547,-1.222 1.222,-1.222 z m 0,12.385 h 24.473 c 0.676,0 1.222,0.547 1.222,1.222 v 2.604 c 0,0.674 -0.546,1.222 -1.222,1.222 H 35.471 c -0.675,0 -1.222,-0.548 -1.222,-1.222 v -2.604 c 10e-4,-0.675 0.547,-1.222 1.222,-1.222 z m -8.95,17.836 c -1.964,0 -3.56,-1.595 -3.56,-3.561 0,-1.968 1.595,-3.557 3.56,-3.557 1.965,0 3.56,1.589 3.56,3.557 0.001,1.966 -1.595,3.561 -3.56,3.561 z m 0,-11.75 c -1.964,0 -3.56,-1.596 -3.56,-3.562 0,-1.968 1.595,-3.557 3.56,-3.557 1.965,0 3.56,1.589 3.56,3.557 0.001,1.966 -1.595,3.562 -3.56,3.562 z m 0,-12.387 c -1.964,0 -3.56,-1.594 -3.56,-3.56 0,-1.964 1.595,-3.558 3.56,-3.558 1.965,0 3.56,1.594 3.56,3.558 0.001,1.966 -1.595,3.56 -3.56,3.56 z m 0,-12.316 c -1.964,0 -3.56,-1.591 -3.56,-3.56 0,-1.961 1.595,-3.557 3.56,-3.557 1.965,0 3.56,1.596 3.56,3.557 0.001,1.969 -1.595,3.56 -3.56,3.56 z m 7.729,34.194 v -2.604 c 0,-0.676 0.546,-1.222 1.222,-1.222 h 30.584 c 0.676,0 1.222,0.546 1.222,1.222 v 2.604 c 0,0.675 -0.546,1.221 -1.222,1.221 H 35.471 c -0.675,0 -1.221,-0.546 -1.221,-1.221 z"
           inkscape:connector-curvature="0"
           style="fill:#000000" />
        <path
           id="path5344"
           d="m 86.353,82.05 -6.63,-9.046 -4.829,-6.585 c -0.398,-0.544 -0.722,-0.439 -0.722,0.235 v 6.354 c 0,0.675 -0.547,1.221 -1.222,1.221 H 64.534 50.241 c -0.675,0 -1.222,0.547 -1.222,1.222 v 11.09 4.076 c 0,0.676 0.546,1.222 1.222,1.222 h 14.293 8.416 c 0.675,0 1.222,0.547 1.222,1.222 v 6.354 c 0,0.676 0.323,0.78 0.722,0.236 L 86.353,84.02 c 0.398,-0.543 0.398,-1.426 0,-1.97 z"
           inkscape:connector-curvature="0"
           style="fill:#000000" />
      </g>
    </g>
    <g
       id="g5547"
       transform="translate(1203.7364,-242.89597)">
      <path
         id="path5537"
         d="M 76.214,29.977 V 26.446 L 46.804,0 V 0.076 H 9.022 C 4.037,0.076 0,4.112 0,9.093 V 90.981 C 0,95.966 4.037,100 9.022,100 h 58.176 c 4.979,0 9.016,-4.034 9.016,-9.019 V 29.98 h 0.003 l -0.003,-0.003 z m -8.017,61.004 c 0,0.544 -0.448,0.999 -0.999,0.999 H 9.022 c -0.559,0 -1.006,-0.455 -1.006,-0.999 V 9.093 c 0,-0.551 0.447,-1.002 1.006,-1.002 h 37.781 v 21.89 h 21.394 v 61 z"
         inkscape:connector-curvature="0" />
      <path
         id="path5539"
         d="m 41.141,41.084 c 0.059,-3.163 -0.94,-4.789 -1.42,-5.333 -0.871,-1.137 -2.263,-1.815 -3.692,-1.802 -0.61,0 -1.199,0.114 -1.774,0.3 -1.537,0.496 -2.767,1.667 -3.39,3.155 -0.441,1.01 -0.59,2.115 -0.59,3.218 0.018,3.342 1.371,7.052 2.763,10.2 -1.55,6.032 -4.071,13.167 -6.714,19.052 -6.955,3.331 -11.113,6.448 -11.754,10.676 -0.045,0.2 -0.045,0.44 -0.045,0.645 -0.035,1.525 0.706,3.579 2.808,5.115 0.806,0.613 1.802,0.947 2.821,0.947 2.598,-0.052 4.582,-1.854 6.625,-4.695 1.419,-1.998 2.88,-4.592 4.406,-7.765 4.605,-1.968 10.189,-3.766 15.068,-4.848 2.914,2.643 5.67,4.176 8.495,4.203 2.215,0.021 4.271,-1.096 5.557,-2.952 0.827,-1.179 1.361,-2.412 1.361,-3.728 0.007,-0.706 -0.159,-1.427 -0.489,-2.067 -1.24,-2.314 -3.831,-3.024 -6.973,-3.018 -1.675,0 -3.601,0.183 -5.795,0.544 -3.038,-3.383 -6.211,-8.127 -8.54,-12.795 0.941,-4.095 1.272,-6.961 1.272,-9.052 z m -6.398,25.41 c 0.957,-2.48 1.863,-5.029 2.666,-7.545 1.23,1.957 2.539,3.831 3.883,5.547 -2.178,0.582 -4.386,1.254 -6.549,1.998 z"
         inkscape:connector-curvature="0" />
    </g>
    <g
       id="g5839"
       transform="translate(107.89005,309.21938)">
      <g
         id="Captions-2">
        <line
           id="line5741"
           y2="16.5"
           x2="-162"
           y1="16.5"
           x1="-179"
           stroke-miterlimit="10"
           style="fill:#000000;stroke:#ffffff;stroke-miterlimit:10" />
        <rect
           id="rect5755"
           height="32.5"
           width="35"
           y="58"
           x="-179"
           style="fill:none" />
        <rect
           id="rect5771"
           height="32.5"
           width="35"
           y="58"
           x="-136.5"
           style="fill:none" />
        <rect
           id="rect5783"
           height="32.5"
           width="35"
           y="58"
           x="-94"
           style="fill:none" />
      </g>
      <path
         id="path5825"
         d="m 30.014,82.279 c -0.003,0 -0.012,0 -0.015,0 -2.142,0 -3.46,-0.917 -4.189,-1.688 -1.802,-1.904 -1.708,-4.629 -1.69,-4.934 l -0.003,-4.693 -0.589,-0.012 c -6.056,0 -11.024,-4.972 -11.024,-11.08 V 42.471 c 0,-6.108 4.969,-11.08 11.077,-11.08 H 62.78 c 6.108,0 11.077,4.972 11.077,11.08 v 17.402 c 0,6.146 -4.969,11.145 -11.077,11.145 H 44.062 l -7.427,7.62 c -1.09,1.18 -3.358,3.633 -6.621,3.641 z M 23.58,35.891 c -3.627,0 -6.577,2.953 -6.577,6.58 v 17.402 c 0,3.627 2.95,6.58 6.577,6.58 l 2.839,0.064 c 1.222,0.029 2.197,1.028 2.197,2.25 v 7.014 c -0.015,0.46 0.085,1.327 0.469,1.723 0.07,0.076 0.264,0.275 0.914,0.275 v 2.25 l 0.006,-2.25 c 1.298,-0.003 2.517,-1.321 3.322,-2.194 l 0.419,-0.445 7.761,-7.945 c 0.422,-0.434 1.002,-0.677 1.608,-0.677 h 19.664 c 3.627,0 6.577,-2.979 6.577,-6.645 V 42.471 c 0,-3.627 -2.95,-6.58 -6.577,-6.58 H 23.58 z"
         inkscape:connector-curvature="0" />
      <path
         id="path5827"
         d="m 77.647,52.408 c -1.242,0 -2.25,-1.008 -2.25,-2.25 0,-1.242 1.008,-2.25 2.25,-2.25 2.95,0 5.35,-2.399 5.35,-5.35 V 30.57 c 0,-5.854 -2.496,-8.35 -8.35,-8.35 h -30.75 c -2.947,0 -5.347,2.399 -5.347,5.35 0,1.242 -1.008,2.25 -2.25,2.25 -1.242,0 -2.25,-1.008 -2.25,-2.25 0,-5.432 4.418,-9.85 9.847,-9.85 h 30.75 c 8.405,0 12.85,4.444 12.85,12.85 v 11.988 c 0,5.432 -4.418,9.85 -9.85,9.85 z"
         inkscape:connector-curvature="0" />
      <path
         id="path5829"
         d="M 54.901,49.654 H 28.276 c -1.242,0 -2.25,-1.008 -2.25,-2.25 0,-1.242 1.008,-2.25 2.25,-2.25 h 26.625 c 1.242,0 2.25,1.008 2.25,2.25 0,1.242 -1.007,2.25 -2.25,2.25 z"
         inkscape:connector-curvature="0" />
      <path
         id="path5831"
         d="M 43.18,59.404 H 28.276 c -1.242,0 -2.25,-1.008 -2.25,-2.25 0,-1.242 1.008,-2.25 2.25,-2.25 H 43.18 c 1.242,0 2.25,1.008 2.25,2.25 0,1.242 -1.008,2.25 -2.25,2.25 z"
         inkscape:connector-curvature="0" />
    </g>
    <g
       id="g6030"
       transform="matrix(0.92025104,0,0,0.92025104,92.065555,391.54349)">
      <g
         id="g6012">
        <path
           id="path6014"
           d="m 67.484,35.67 c 0,0 -0.5,1.552 -0.578,1.759 -0.078,0.207 -0.558,0.851 -0.454,0.851 0.103,0 1.162,0.491 1.162,0.491 l 4.114,1.278 -0.059,1.938 c -0.361,0.053 -1.782,0.994 -1.989,1.459 -0.135,0.304 -0.436,0.846 -0.725,1.222 3.747,1.511 5.94,3.724 6.029,6.2 0.061,0.442 2.335,8.557 2.465,10.383 h 17.312 c 0.015,-0.075 -0.521,-10.573 -0.526,-10.652 0,0 -0.995,-2.528 -2.57,-2.785 -1.576,-0.259 -3.599,-0.808 -4.445,-1.447 -0.495,-0.376 -2.106,-1.027 -2.853,-1.299 -0.349,-0.125 -0.944,-1.156 -1.15,-1.621 -0.206,-0.465 -1.628,-1.406 -1.99,-1.459 l -0.058,-1.938 4.113,-1.278 c 0,0 1.061,-0.491 1.163,-0.491 0.104,0 -0.491,-0.78 -0.568,-0.988 -0.078,-0.207 -0.465,-1.621 -0.465,-1.621 0,0 1.389,1.698 2.093,2.015 0,0 -1.383,-2.596 -1.795,-4.042 -0.414,-1.447 -0.685,-3.707 -0.685,-3.913 0,-0.208 -0.853,-6.278 -1.318,-7.285 -0.465,-1.009 -1.096,-2.377 -2.176,-3.049 -1.08,-0.672 -2.681,-1.628 -4.98,-1.756 -0.034,-0.002 -0.068,-0.002 -0.103,-0.005 -0.034,0.003 -0.068,0.003 -0.104,0.005 -2.298,0.128 -3.899,1.084 -4.979,1.756 -1.078,0.672 -1.71,2.04 -2.176,3.049 -0.465,1.007 -1.317,7.077 -1.317,7.285 0,0.206 -0.241,2.558 -0.654,4.004 -0.413,1.447 -1.825,3.951 -1.825,3.951 0.704,-0.319 2.091,-2.017 2.091,-2.017 z"
           inkscape:connector-curvature="0" />
      </g>
      <g
         id="g6016">
        <path
           id="path6018"
           d="m 31.682,52.484 v -0.106 l 0.011,-0.104 c 1.12,-4.836 6.947,-7.147 10.128,-8.533 0.005,-0.002 -0.005,0.002 0,0 -1.931,-0.882 -2.95,-1.541 -3.427,-1.649 -0.195,-0.391 -0.614,-3.345 -0.614,-3.345 0,0 2.321,-2.051 2.842,-5.978 0,0 1.143,0.632 1.214,-1.758 0.053,-1.841 0.371,-2.56 -0.882,-3.098 0,0 0.09,-1.274 0.13,-2.405 0.062,-1.676 0.371,-4.028 -2.529,-5.92 -0.412,-0.269 -2.539,-1.452 -2.553,-1.446 -0.758,-0.46 -1.722,-0.753 -1.722,-0.753 l 0.031,0.691 c -0.052,-0.051 -0.104,-0.105 -0.152,-0.152 -0.191,-0.197 -0.299,-0.959 -0.28,-1.261 0.037,-0.536 0.037,-0.536 0.037,-0.536 -1.374,1.025 -2.321,2.35 -2.321,2.35 L 31.718,17.2 c 0,0 -0.255,0.393 -3.398,2.355 -3.084,1.925 -2.573,4.766 -2.488,6.448 0.057,1.13 0.169,1.91 0.169,1.91 -1.252,0.538 -0.596,1.306 -0.564,3.147 0.04,2.547 1.324,2.098 1.324,2.098 0.591,3.469 2.414,5.588 2.414,5.588 0,0 -0.516,2.972 -0.714,3.349 -0.568,0.127 -1.88,1.032 -4.633,2.178 -4.057,1.688 -2.783,0.709 -6.085,2.359 -5.219,2.61 -4.184,13.493 -4.184,13.493 H 30 l 1.682,-7.641 z"
           inkscape:connector-curvature="0" />
      </g>
      <g
         id="g6020">
        <path
           id="path6022"
           d="m 76.492,67.25 c 0,-3.103 -3.504,-16.225 -3.504,-16.225 0,-1.917 -2.521,-4.107 -7.494,-5.384 -2.58,-0.662 -4.744,-2.145 -4.744,-2.145 -0.319,-0.181 -0.27,-1.857 -0.27,-1.857 l -1.602,-0.241 c 0,-0.137 -0.136,-2.145 -0.136,-2.145 1.916,-0.639 1.718,-4.41 1.718,-4.41 1.217,0.67 2.008,-2.311 2.008,-2.311 1.439,-4.145 -0.716,-3.895 -0.716,-3.895 0.685,-3.102 0,-7.635 0,-7.635 -0.958,-8.395 -15.384,-6.116 -13.673,-3.373 -4.215,-0.776 -3.254,8.757 -3.254,8.757 l 0.914,2.464 c -1.796,1.155 -0.548,2.555 -0.487,4.167 0.088,2.377 1.551,1.885 1.551,1.885 0.091,3.924 2.037,4.44 2.037,4.44 0.366,2.464 0.138,2.045 0.138,2.045 l -1.734,0.208 c 0.077,0.623 -0.136,1.671 -0.136,1.671 -2.043,0.902 -2.478,1.432 -4.503,2.312 -3.914,1.704 -8.168,3.92 -8.924,6.904 -0.756,2.984 -3,14.766 -3,14.766 h 45.811 z"
           inkscape:connector-curvature="0" />
      </g>
    </g>
    <path
       id="path6202"
       d="m 964.29837,45.607309 -6.566,-6.09585 c 0,0 -9.9076,-2.05054 -5.1576,-4.13454 0,0 2.729,-1.641 9.355,-4.525 3.428,-1.49 4.165,-1.386 7.622,-2.914 0,0 0.361,-2.774 0.231,-3.831 l 3.704,0 c 0,0 0.617,0.359 0,-3.812 0,0 -4.296,-0.873 -4.449,-7.517 0,0 -2.476,0.833 -2.627,-3.1929995 -0.104,-2.729 -2.215,-5.099 0.824,-7.054 l -1.16,-4.321 c 0,0 -4.083,-14.3750005 4.625,-15.8750005 3.133,-4.781 22.629,-7.379 24.25,6.833 0,0 0.556,7.7500005 -0.603,13.0010005 0,0 3.65,-0.423 1.211,6.593 0,0 -1.338,5.0459995 -3.398,3.9129995 0,0 -0.664,6.385 -3.91,7.467 0,0 0.232,3.399 0.232,3.63 l 4.09,0.463 c 0,0 -0.465,3.782 0.078,4.09 0,0 3.664,1.51 8.03103,2.632 8.42,2.161 5.3139,5.36392 5.3139,8.60892 0,0 -9.25153,3.81993 -9.25153,9.07193 z"
       inkscape:connector-curvature="0"
       sodipodi:nodetypes="ccccccccccccccccccccccccc" />
    <g
       id="g6410"
       transform="matrix(-0.63468208,0,0,0.63468208,1011.4758,102.58458)">
      <g
         id="g6412">
        <path
           id="path6414"
           d="m 7.043,21.248 c 6.339,9.57 4.968,18.444 -1.356,25.57 -4.176,3.712 3.486,1.996 5.86,6.915 0.175,0.362 -0.397,4.502 -0.268,4.864 0.575,1.602 1.813,3.595 1.688,5.18 -0.142,1.769 -0.63,1.521 -1.262,3.25 -1.536,4.2 -0.418,4.795 0.115,6.078 1.487,3.581 10.23,1.593 15.221,3.137 7.804,2.415 -3.986971,23.444588 0.653029,23.444588 1.624,0 20.658971,-2.891588 32.509971,-1.497588 3.231,0.38 1.398,0.844 2.096,-4.966 0.187,-1.56 17.573,11.707 33.236,-17.23 C 81.36,76.923 71.358,77.74 79.351,59.865 92.469,30.529 77.921,-3.488 33.04,2.25 20.876,3.806 3.414,18.203 7.043,21.248 z"
           clip-rule="evenodd"
           inkscape:connector-curvature="0"
           style="fill-rule:evenodd"
           sodipodi:nodetypes="ccccccccscccscc" />
        <path
           style="fill:#000000;fill-opacity:1;stroke:#000000;stroke-width:1px;stroke-linecap:butt;stroke-linejoin:miter;stroke-opacity:1"
           d="m 1175.4388,2387.9717 -2.7779,2.778 13.0057,3.283 13.5108,-3.0305 -1.8941,-2.2728 -11.6167,-3.0305 z"
           id="path6427"
           inkscape:connector-curvature="0"
           transform="matrix(-1.575592,0,0,1.575592,1913.8005,-3664.7206)" />
      </g>
    </g>
    <flowRoot
       xml:space="preserve"
       id="flowRoot6429"
       style="font-size:40px;font-style:normal;font-variant:normal;font-weight:normal;font-stretch:normal;line-height:125%;letter-spacing:0px;word-spacing:0px;fill:#000000;fill-opacity:1;stroke:none;font-family:Roboto Slab;-inkscape-font-specification:Roboto Slab"
       transform="translate(-203.17915,-2223.3479)"><flowRegion
         id="flowRegion6431"><rect
           id="rect6433"
           width="52.770485"
           height="50.056923"
           x="777.14288"
           y="2259.9211" /></flowRegion><flowPara
         id="flowPara6435">1.</flowPara></flowRoot>    <flowRoot
       xml:space="preserve"
       id="flowRoot6439"
       style="font-size:40px;font-style:normal;font-variant:normal;font-weight:normal;font-stretch:normal;line-height:125%;letter-spacing:0px;word-spacing:0px;fill:#000000;fill-opacity:1;stroke:none;font-family:Roboto Slab;-inkscape-font-specification:Roboto Slab"
       transform="translate(-203.17915,-2249.3479)"><flowRegion
         id="flowRegion6441"><rect
           id="rect6443"
           width="53.538086"
           height="61.619305"
           x="776.80731"
           y="2374.8398" /></flowRegion><flowPara
         id="flowPara6445">2.</flowPara></flowRoot>    <flowRoot
       xml:space="preserve"
       id="flowRoot6449"
       style="font-size:20px;font-style:normal;font-variant:normal;font-weight:normal;font-stretch:normal;line-height:125%;letter-spacing:0px;word-spacing:0px;fill:#000000;fill-opacity:1;stroke:none;font-family:Roboto Slab;-inkscape-font-specification:Roboto Slab"
       transform="translate(-203.17915,-2249.3479)"><flowRegion
         id="flowRegion6451"><rect
           id="rect6453"
           width="49.497475"
           height="37.375645"
           x="830.3454"
           y="2465.7534"
           style="font-size:20px" /></flowRegion><flowPara
         id="flowPara6455">2.1</flowPara></flowRoot>    <text
       xml:space="preserve"
       style="font-size:20px;font-style:normal;font-variant:normal;font-weight:normal;font-stretch:normal;line-height:125%;letter-spacing:0px;word-spacing:0px;fill:#000000;fill-opacity:1;stroke:none;font-family:Roboto Slab;-inkscape-font-specification:Roboto Slab"
       x="627.16626"
       y="298.04517"
       id="text6457"
       sodipodi:linespacing="125%"><tspan
         sodipodi:role="line"
         id="tspan6459"
         x="627.16626"
         y="298.04517">2.2</tspan></text>
    <flowRoot
       xml:space="preserve"
       id="flowRoot6461"
       style="font-size:40px;font-style:normal;font-variant:normal;font-weight:normal;font-stretch:normal;line-height:125%;letter-spacing:0px;word-spacing:0px;fill:#000000;fill-opacity:1;stroke:none;font-family:Roboto Slab;-inkscape-font-specification:Roboto Slab"
       transform="translate(-203.17915,-2223.3479)"><flowRegion
         id="flowRegion6463"><rect
           id="rect6465"
           width="53.53809"
           height="49.497475"
           x="776.80731"
           y="2564.7485" /></flowRegion><flowPara
         id="flowPara6467">3.</flowPara></flowRoot>    <path
       style="fill:none;stroke:#000000;stroke-width:3;stroke-linecap:butt;stroke-linejoin:miter;stroke-miterlimit:4;stroke-opacity:1;stroke-dasharray:none"
       d="m 627.16625,64.618689 237.3859,0"
       id="path6481"
       inkscape:connector-curvature="0" />
    <path
       style="fill:none;stroke:#000000;stroke-width:3;stroke-linecap:butt;stroke-linejoin:miter;stroke-miterlimit:4;stroke-opacity:1;stroke-dasharray:none"
       d="m 627.67131,154.52231 237.38594,0"
       id="path6481-7"
       inkscape:connector-curvature="0" />
    <path
       style="fill:none;stroke:#000000;stroke-width:3;stroke-linecap:butt;stroke-linejoin:miter;stroke-miterlimit:4;stroke-opacity:1;stroke-dasharray:none"
       d="m 627.16625,371.70511 237.3859,0"
       id="path6481-1"
       inkscape:connector-curvature="0" />
    <path
       style="fill:none;stroke:#000000;stroke-width:3;stroke-linecap:butt;stroke-linejoin:miter;stroke-miterlimit:4;stroke-opacity:1;stroke-dasharray:none"
       d="m 665.04696,230.28375 176.90389,0"
       id="path6481-4"
       inkscape:connector-curvature="0" />
    <path
       style="fill:none;stroke:#000000;stroke-width:3;stroke-linecap:butt;stroke-linejoin:miter;stroke-miterlimit:4;stroke-opacity:1;stroke-dasharray:none"
       d="m 663.97323,291.90306 176.90382,0"
       id="path6481-4-4"
       inkscape:connector-curvature="0" />
    <path
       style="fill:none;stroke:#000000;stroke-width:3;stroke-linecap:butt;stroke-linejoin:miter;stroke-miterlimit:4;stroke-opacity:1;stroke-dasharray:none"
       d="m 573.62817,91.933463 289.80368,0"
       id="path6481-5"
       inkscape:connector-curvature="0" />
    <path
       style="fill:none;stroke:#000000;stroke-width:3;stroke-linecap:butt;stroke-linejoin:miter;stroke-miterlimit:4;stroke-opacity:1;stroke-dasharray:none"
       d="m 573.62817,110.07559 289.80368,0"
       id="path6481-5-5"
       inkscape:connector-curvature="0" />
    <path
       style="fill:none;stroke:#000000;stroke-width:3;stroke-linecap:butt;stroke-linejoin:miter;stroke-miterlimit:4;stroke-opacity:1;stroke-dasharray:none"
       d="m 573.62817,176.84719 289.80368,0"
       id="path6481-5-7"
       inkscape:connector-curvature="0" />
    <path
       style="fill:none;stroke:#000000;stroke-width:3;stroke-linecap:butt;stroke-linejoin:miter;stroke-miterlimit:4;stroke-opacity:1;stroke-dasharray:none"
       d="m 575.17815,193.91826 289.8037,0"
       id="path6481-5-8"
       inkscape:connector-curvature="0" />
    <path
       style="fill:none;stroke:#000000;stroke-width:3;stroke-linecap:butt;stroke-linejoin:miter;stroke-miterlimit:4;stroke-opacity:1;stroke-dasharray:none"
       d="m 627.16625,250.4868 234.3619,0"
       id="path6481-7-7"
       inkscape:connector-curvature="0" />
    <path
       style="fill:none;stroke:#000000;stroke-width:3;stroke-linecap:butt;stroke-linejoin:miter;stroke-miterlimit:4;stroke-opacity:1;stroke-dasharray:none"
       d="m 627.16625,268.4868 234.3619,0"
       id="path6481-7-7-8"
       inkscape:connector-curvature="0" />
    <path
       style="fill:none;stroke:#000000;stroke-width:3;stroke-linecap:butt;stroke-linejoin:miter;stroke-miterlimit:4;stroke-opacity:1;stroke-dasharray:none"
       d="m 627.20361,309.13656 234.36194,0"
       id="path6481-7-7-3"
       inkscape:connector-curvature="0" />
    <path
       style="fill:none;stroke:#000000;stroke-width:3;stroke-linecap:butt;stroke-linejoin:miter;stroke-miterlimit:4;stroke-opacity:1;stroke-dasharray:none"
       d="m 627.16625,328.26855 234.3619,0"
       id="path6481-7-7-9"
       inkscape:connector-curvature="0" />
    <path
       style="fill:none;stroke:#000000;stroke-width:3;stroke-linecap:butt;stroke-linejoin:miter;stroke-miterlimit:4;stroke-opacity:1;stroke-dasharray:none"
       d="m 573.62817,394.48434 289.80368,0"
       id="path6481-5-7-6"
       inkscape:connector-curvature="0" />
    <path
       style="fill:none;stroke:#000000;stroke-width:3;stroke-linecap:butt;stroke-linejoin:miter;stroke-miterlimit:4;stroke-opacity:1;stroke-dasharray:none"
       d="m 575.17815,411.55534 289.8037,0"
       id="path6481-5-8-6"
       inkscape:connector-curvature="0" />
    <path
       style="fill:none;stroke:#000000;stroke-width:3;stroke-linecap:butt;stroke-linejoin:miter;stroke-miterlimit:4;stroke-opacity:1;stroke-dasharray:none"
       d="m 1055.1885,26.273539 154.4023,0"
       id="path6481-4-4-9"
       inkscape:connector-curvature="0" />
    <path
       style="fill:none;stroke:#000000;stroke-width:3;stroke-linecap:butt;stroke-linejoin:miter;stroke-miterlimit:4;stroke-opacity:1;stroke-dasharray:none"
       d="m 1055.4816,8.0298895 204.552,0"
       id="path6481-7-7-3-9"
       inkscape:connector-curvature="0" />
    <path
       style="fill:none;stroke:#000000;stroke-width:3;stroke-linecap:butt;stroke-linejoin:miter;stroke-miterlimit:4;stroke-opacity:1;stroke-dasharray:none"
       d="m 1055.449,-11.102111 204.5519,0"
       id="path6481-7-7-9-5"
       inkscape:connector-curvature="0" />
    <path
       style="fill:none;stroke:#000000;stroke-width:3;stroke-linecap:butt;stroke-linejoin:miter;stroke-miterlimit:4;stroke-opacity:1;stroke-dasharray:none"
       d="m 1054.9436,143.91568 154.4023,0"
       id="path6481-4-4-9-3"
       inkscape:connector-curvature="0" />
    <path
       style="fill:none;stroke:#000000;stroke-width:3;stroke-linecap:butt;stroke-linejoin:miter;stroke-miterlimit:4;stroke-opacity:1;stroke-dasharray:none"
       d="m 1055.2367,125.67208 204.552,0"
       id="path6481-7-7-3-9-2"
       inkscape:connector-curvature="0" />
    <path
       style="fill:none;stroke:#000000;stroke-width:3;stroke-linecap:butt;stroke-linejoin:miter;stroke-miterlimit:4;stroke-opacity:1;stroke-dasharray:none"
       d="m 1055.2041,106.54008 204.5519,0"
       id="path6481-7-7-9-5-1"
       inkscape:connector-curvature="0" />
    <flowRoot
       xml:space="preserve"
       id="flowRoot6726"
       style="font-size:64px;font-style:normal;font-variant:normal;font-weight:normal;font-stretch:normal;line-height:125%;letter-spacing:0px;word-spacing:0px;fill:#0064ff;fill-opacity:1;stroke:none;font-family:Roboto Slab;-inkscape-font-specification:Roboto Slab"
       transform="translate(-222.60772,-2155.9194)"><flowRegion
         id="flowRegion6728"><rect
           id="rect6730"
           width="339.66446"
           height="91.428574"
           x="437.14285"
           y="1937.064"
           style="font-size:64px;fill:#0064ff;fill-opacity:1" /></flowRegion><flowPara
         id="flowPara6732">Organize</flowPara></flowRoot>    <flowRoot
       xml:space="preserve"
       id="flowRoot6734"
       style="font-size:64px;font-style:normal;font-variant:normal;font-weight:normal;font-stretch:normal;line-height:125%;letter-spacing:0px;word-spacing:0px;fill:#c8ab37;fill-opacity:1;stroke:none;font-family:Roboto Slab;-inkscape-font-specification:Roboto Slab"
       transform="translate(-299.17915,-2215.3479)"><flowRegion
         id="flowRegion6736"><rect
           id="rect6738"
           width="220"
           height="82.857147"
           x="520"
           y="2285.6355"
           style="font-size:64px;fill:#c8ab37;fill-opacity:1" /></flowRegion><flowPara
         id="flowPara6740">Write</flowPara></flowRoot>    <flowRoot
       xml:space="preserve"
       id="flowRoot6742"
       style="font-size:64px;font-style:normal;font-variant:normal;font-weight:normal;font-stretch:normal;line-height:125%;letter-spacing:0px;word-spacing:0px;fill:#ff3200;fill-opacity:1;stroke:none;font-family:Roboto Slab;-inkscape-font-specification:Roboto Slab"
       transform="translate(-199.75057,-2109.0622)"><flowRegion
         id="flowRegion6744"><rect
           id="rect6746"
           width="314.28571"
           height="102.85715"
           x="1174.2858"
           y="1888.4926"
           style="font-size:64px;fill:#ff3200;fill-opacity:1" /></flowRegion><flowPara
         id="flowPara6748">Export</flowPara></flowRoot>    <flowRoot
       xml:space="preserve"
       id="flowRoot6750"
       style="font-size:64px;font-style:normal;font-variant:normal;font-weight:normal;font-stretch:normal;line-height:125%;letter-spacing:0px;word-spacing:0px;fill:#00c846;fill-opacity:1;stroke:none;font-family:Roboto Slab;-inkscape-font-specification:Roboto Slab"
       transform="translate(-154.63801,-2078.7765)"><flowRegion
         id="flowRegion6752"><rect
           id="rect6754"
           width="251.42857"
           height="94.285713"
           x="808.57141"
           y="1859.9211"
           style="font-size:64px;fill:#00c846;fill-opacity:1" /></flowRegion><flowPara
         id="flowPara6756">Iterate</flowPara></flowRoot>    <flowRoot
       xml:space="preserve"
       id="flowRoot6758"
       style="font-size:64px;font-style:normal;font-variant:normal;font-weight:normal;font-stretch:normal;line-height:125%;letter-spacing:0px;word-spacing:0px;fill:#ab37c8;fill-opacity:1;stroke:none;font-family:Roboto Slab;-inkscape-font-specification:Roboto Slab"
       transform="translate(-1505.1925,-1895.7557)"><flowRegion
         id="flowRegion6760"><rect
           id="rect6762"
           width="354.28571"
           height="131.42857"
           x="1717.1428"
           y="2274.2068"
           style="font-size:64px;fill:#ab37c8;fill-opacity:1" /></flowRegion><flowPara
         id="flowPara6764">Discuss</flowPara></flowRoot>    <path
       style="fill:none;stroke:#000000;stroke-width:3;stroke-linecap:butt;stroke-linejoin:miter;stroke-miterlimit:4;stroke-opacity:1;stroke-dasharray:none"
       d="m 1017.2555,273.83246 116.4676,0"
       id="path6481-4-4-9-3-3"
       inkscape:connector-curvature="0" />
    <path
       style="fill:none;stroke:#000000;stroke-width:3;stroke-linecap:butt;stroke-linejoin:miter;stroke-miterlimit:4;stroke-opacity:1;stroke-dasharray:none"
       d="m 1017.4766,255.58886 154.2961,0"
       id="path6481-7-7-3-9-2-3"
       inkscape:connector-curvature="0" />
    <path
       style="fill:none;stroke:#000000;stroke-width:3;stroke-linecap:butt;stroke-linejoin:miter;stroke-miterlimit:4;stroke-opacity:1;stroke-dasharray:none"
       d="m 1017.452,236.45686 154.296,0"
       id="path6481-7-7-9-5-1-6"
       inkscape:connector-curvature="0" />
    <rect
       style="fill:#cd87de;fill-opacity:1;stroke:#000000;stroke-width:6.72282076;stroke-miterlimit:4;stroke-opacity:1;stroke-dasharray:none"
       id="rect3823-3-3"
       width="190.13835"
       height="40.826557"
       x="1002.3519"
       y="353.3028"
       ry="2.5661101" />
    <flowRoot
       xml:space="preserve"
       id="flowRoot6808"
       style="font-size:28px;font-style:normal;font-variant:normal;font-weight:normal;font-stretch:normal;line-height:125%;letter-spacing:0px;word-spacing:0px;fill:#000000;fill-opacity:1;stroke:none;font-family:Roboto Slab;-inkscape-font-specification:Roboto Slab"
       transform="translate(-147.661,-2208.8994)"><flowRegion
         id="flowRegion6810"><rect
           id="rect6812"
           width="231.83002"
           height="70.205605"
           x="1189.9597"
           y="2563.7383"
           style="font-size:28px" /></flowRegion><flowPara
         id="flowPara6814">Answer</flowPara></flowRoot>    <path
       style="fill:none;stroke:#0064ff;stroke-width:5;stroke-linecap:butt;stroke-linejoin:miter;stroke-miterlimit:4;stroke-opacity:1;stroke-dasharray:none"
       d="m 216.82384,-142.46251 266.78181,0 90.02252,111.116699"
       id="path6824"
       inkscape:connector-curvature="0"
       sodipodi:nodetypes="ccc" />
    <path
       style="fill:none;stroke:#00c846;stroke-width:5;stroke-linecap:butt;stroke-linejoin:miter;stroke-miterlimit:4;stroke-opacity:1;stroke-dasharray:none"
       d="m 655.45052,-142.46251 197.98993,0"
       id="path6826"
       inkscape:connector-curvature="0"
       sodipodi:nodetypes="cc" />
    <path
       style="fill:none;stroke:#00c846;stroke-width:5;stroke-linecap:butt;stroke-linejoin:miter;stroke-miterlimit:4;stroke-opacity:1;stroke-dasharray:none"
       d="m 730.20181,-142.46251 0.12256,107.433199"
       id="path6828"
       inkscape:connector-curvature="0"
       sodipodi:nodetypes="cc" />
    <path
       style="fill:none;stroke:#ff3200;stroke-width:5;stroke-linecap:butt;stroke-linejoin:miter;stroke-miterlimit:4;stroke-opacity:1;stroke-dasharray:none"
       d="m 1176.8209,-142.46251 c -31.4285,0 -204.28573,0 -204.28573,0 L 854.67805,-37.712511"
       id="path6830"
       inkscape:connector-curvature="0"
       sodipodi:nodetypes="ccc" />
    <path
       style="fill:none;stroke:#c8ab37;stroke-width:5;stroke-linecap:butt;stroke-linejoin:miter;stroke-miterlimit:4;stroke-opacity:1;stroke-dasharray:none"
       d="m 220.03515,148.28749 262.5,0 77.52159,108.06154"
       id="path6840"
       inkscape:connector-curvature="0"
       sodipodi:nodetypes="ccc" />
    <path
       style="fill:none;stroke:#bc5fd3;stroke-width:5;stroke-linecap:butt;stroke-linejoin:miter;stroke-miterlimit:4;stroke-opacity:1;stroke-dasharray:none"
       d="m 222.23356,453.7152 224.42078,0 39.90106,39.37389 422.74891,0.49614 117.01069,-119.67208"
       id="path6838"
       inkscape:connector-curvature="0"
       sodipodi:nodetypes="ccccc" />
    <flowRoot
       xml:space="preserve"
       id="flowRoot6862"
       style="font-size:40px;font-style:normal;font-variant:normal;font-weight:normal;font-stretch:normal;line-height:125%;letter-spacing:0px;word-spacing:0px;fill:#000000;fill-opacity:1;stroke:none;font-family:Roboto Slab;-inkscape-font-specification:Roboto Slab"
       transform="translate(0,-1927.5591)"><flowRegion
         id="flowRegion6864"><rect
           id="rect6866"
           width="505.71429"
           height="374.28571"
           x="1505.7144"
           y="1837.064" /></flowRegion><flowPara
         id="flowPara6868" /></flowRoot>    <flowRoot
       xml:space="preserve"
       id="flowRoot4790-2-3"
       style="font-size:96px;font-style:normal;font-variant:normal;font-weight:normal;font-stretch:normal;line-height:125%;letter-spacing:0px;word-spacing:0px;fill:#cccccc;fill-opacity:1;stroke:none;font-family:Roboto Slab;-inkscape-font-specification:Roboto Slab"
       transform="translate(63.584698,-53.809543)"><flowRegion
         id="flowRegion4792-4-8"><rect
           id="rect4794-8-5"
           width="1717.3669"
           height="138.7319"
           x="137.59824"
           y="671.34973"
           style="font-size:96px;font-style:normal;font-variant:normal;font-weight:normal;font-stretch:normal;fill:#cccccc;font-family:Roboto Slab;-inkscape-font-specification:Roboto Slab" /></flowRegion><flowPara
         id="flowPara4796-0-7"
         style="font-size:96px;font-style:normal;font-variant:normal;font-weight:normal;font-stretch:normal;fill:#cccccc;font-family:Roboto Slab;-inkscape-font-specification:Roboto Slab">We bring agility to document writing!</flowPara></flowRoot>    <flowRoot
       xml:space="preserve"
       id="flowRoot6909"
       style="fill:black;stroke:none;stroke-opacity:1;stroke-width:1px;stroke-linejoin:miter;stroke-linecap:butt;fill-opacity:1;font-family:Roboto Slab;font-style:normal;font-weight:normal;font-size:40px;line-height:125%;letter-spacing:0px;word-spacing:0px;-inkscape-font-specification:Roboto Slab;font-stretch:normal;font-variant:normal"><flowRegion
         id="flowRegion6911"><rect
           id="rect6913"
           width="642.45703"
           height="820.2439"
           x="1357.645"
           y="1703.0883" /></flowRegion><flowPara
         id="flowPara6915" /></flowRoot>    <flowRoot
       xml:space="preserve"
       id="flowRoot6917"
       style="font-size:40px;font-style:normal;font-variant:normal;font-weight:normal;font-stretch:normal;text-align:justify;line-height:125%;letter-spacing:0px;word-spacing:0px;text-anchor:start;fill:#000000;fill-opacity:1;stroke:none;font-family:Roboto Slab;-inkscape-font-specification:Roboto Slab"
       transform="translate(0,-1927.5591)"><flowRegion
         id="flowRegion6919"><rect
           id="rect6921"
           width="711.14813"
           height="767.71649"
           x="1333.4014"
           y="1682.8853"
           style="text-align:justify;text-anchor:start" /></flowRegion><flowPara
         id="flowPara6923">Integrate all your workflow in a web-based, platform-agnostic application. Put yout documents in the cloud. PIE lets you import your mind maps, define your document architecture, write collaboratively, chat in real-time with all contributors, customize your styles and export in multiple file formats. </flowPara><flowPara
         id="flowPara6925">It is always up-to-date.</flowPara><flowPara
         id="flowPara6927">It requires no install.</flowPara><flowPara
         id="flowPara6929">It runs in the cloud.</flowPara><flowPara
         id="flowPara6931" /><flowPara
         id="flowPara6933">It will change the way you write.</flowPara></flowRoot>  </g>
</svg>
